<?xml version="1.0" encoding="UTF-8" standalone="no"?>
<!DOCTYPE svg PUBLIC "-//W3C//DTD SVG 1.1//EN"
 "http://www.w3.org/Graphics/SVG/1.1/DTD/svg11.dtd">
<!-- Generated by graphviz version 2.36.0 (20140111.2315)
 -->
<!-- Title: G Pages: 1 -->
<svg width="1327pt" height="1036pt"
 viewBox="0.00 0.00 1327.00 1036.00" xmlns="http://www.w3.org/2000/svg" xmlns:xlink="http://www.w3.org/1999/xlink">
<g id="graph0" class="graph" transform="scale(1 1) rotate(0) translate(4 1032)">
<title>G</title>
<polygon fill="white" stroke="none" points="-4,4 -4,-1032 1323,-1032 1323,4 -4,4"/>
<!-- BaseLineFinancialLoss -->
<g id="node1" class="node"><title>BaseLineFinancialLoss</title>
<path fill="none" stroke="black" d="M568,-916C568,-916 444,-916 444,-916 438,-916 432,-910 432,-904 432,-904 432,-892 432,-892 432,-886 438,-880 444,-880 444,-880 568,-880 568,-880 574,-880 580,-886 580,-892 580,-892 580,-904 580,-904 580,-910 574,-916 568,-916"/>
<text text-anchor="middle" x="506" y="-894.3" font-family="Times,serif" font-size="14.00">BaseLineFinancialLoss</text>
</g>
<!-- AndRef17 -->
<g id="node48" class="node"><title>AndRef17</title>
<ellipse fill="black" stroke="black" cx="576" cy="-954" rx="1.8" ry="1.8"/>
</g>
<!-- BaseLineFinancialLoss&#45;&gt;AndRef17 -->
<g id="edge48" class="edge"><title>BaseLineFinancialLoss&#45;&gt;AndRef17</title>
<path fill="none" stroke="black" d="M528.148,-916.086C546.093,-929.929 569.271,-947.809 574.785,-952.063"/>
</g>
<!-- AverageFraudValue -->
<g id="node2" class="node"><title>AverageFraudValue</title>
<path fill="none" stroke="black" d="M531,-804C531,-804 425,-804 425,-804 419,-804 413,-798 413,-792 413,-792 413,-780 413,-780 413,-774 419,-768 425,-768 425,-768 531,-768 531,-768 537,-768 543,-774 543,-780 543,-780 543,-792 543,-792 543,-798 537,-804 531,-804"/>
<text text-anchor="middle" x="478" y="-782.3" font-family="Times,serif" font-size="14.00">AverageFraudValue</text>
</g>
<!-- AndRef16 -->
<g id="node46" class="node"><title>AndRef16</title>
<ellipse fill="black" stroke="black" cx="646" cy="-842" rx="1.8" ry="1.8"/>
</g>
<!-- AverageFraudValue&#45;&gt;AndRef16 -->
<g id="edge44" class="edge"><title>AverageFraudValue&#45;&gt;AndRef16</title>
<path fill="none" stroke="black" d="M531.156,-804.086C576.145,-818.547 634.842,-837.413 644.598,-840.549"/>
</g>
<!-- NbrAccounts -->
<g id="node3" class="node"><title>NbrAccounts</title>
<path fill="none" stroke="black" d="M571.5,-660C571.5,-660 504.5,-660 504.5,-660 498.5,-660 492.5,-654 492.5,-648 492.5,-648 492.5,-636 492.5,-636 492.5,-630 498.5,-624 504.5,-624 504.5,-624 571.5,-624 571.5,-624 577.5,-624 583.5,-630 583.5,-636 583.5,-636 583.5,-648 583.5,-648 583.5,-654 577.5,-660 571.5,-660"/>
<text text-anchor="middle" x="538" y="-638.3" font-family="Times,serif" font-size="14.00">NbrAccounts</text>
</g>
<!-- AndRef0 -->
<g id="node6" class="node"><title>AndRef0</title>
<ellipse fill="black" stroke="black" cx="646" cy="-714" rx="1.8" ry="1.8"/>
</g>
<!-- NbrAccounts&#45;&gt;AndRef0 -->
<g id="edge2" class="edge"><title>NbrAccounts&#45;&gt;AndRef0</title>
<path fill="none" stroke="black" d="M564.42,-660.124C593.396,-678.905 636.854,-707.072 644.747,-712.188"/>
</g>
<!-- CompromisedAccountRatio -->
<g id="node4" class="node"><title>CompromisedAccountRatio</title>
<path fill="none" stroke="black" d="M764,-660C764,-660 614,-660 614,-660 608,-660 602,-654 602,-648 602,-648 602,-636 602,-636 602,-630 608,-624 614,-624 614,-624 764,-624 764,-624 770,-624 776,-630 776,-636 776,-636 776,-648 776,-648 776,-654 770,-660 764,-660"/>
<text text-anchor="middle" x="689" y="-638.3" font-family="Times,serif" font-size="14.00">CompromisedAccountRatio</text>
</g>
<!-- CompromisedAccountRatio&#45;&gt;AndRef0 -->
<g id="edge3" class="edge"><title>CompromisedAccountRatio&#45;&gt;AndRef0</title>
<path fill="none" stroke="black" d="M678.371,-660.303C666.831,-679.089 649.621,-707.105 646.496,-712.193"/>
</g>
<!-- NbrCompromisedAccounts -->
<g id="node5" class="node"><title>NbrCompromisedAccounts</title>
<path fill="none" stroke="black" d="M719,-804C719,-804 573,-804 573,-804 567,-804 561,-798 561,-792 561,-792 561,-780 561,-780 561,-774 567,-768 573,-768 573,-768 719,-768 719,-768 725,-768 731,-774 731,-780 731,-780 731,-792 731,-792 731,-798 725,-804 719,-804"/>
<text text-anchor="middle" x="646" y="-782.3" font-family="Times,serif" font-size="14.00">NbrCompromisedAccounts</text>
</g>
<!-- NbrCompromisedAccounts&#45;&gt;AndRef16 -->
<g id="edge45" class="edge"><title>NbrCompromisedAccounts&#45;&gt;AndRef16</title>
<path fill="none" stroke="black" d="M646,-804.086C646,-817.929 646,-835.809 646,-840.063"/>
</g>
<!-- AndRef0&#45;&gt;NbrCompromisedAccounts -->
<g id="edge1" class="edge"><title>AndRef0&#45;&gt;NbrCompromisedAccounts</title>
<path fill="none" stroke="black" d="M646,-715.99C646,-720.586 646,-740.356 646,-757.564"/>
<polygon fill="black" stroke="black" points="642.5,-757.789 646,-767.789 649.5,-757.789 642.5,-757.789"/>
</g>
<!-- AndRef1 -->
<g id="node7" class="node"><title>AndRef1</title>
<ellipse fill="black" stroke="black" cx="226" cy="-74" rx="1.8" ry="1.8"/>
</g>
<!-- 2 -->
<g id="node8" class="node"><title>2</title>
<polygon fill="none" stroke="black" points="464.478,-122.544 464.478,-137.456 424.365,-148 367.635,-148 327.522,-137.456 327.522,-122.544 367.635,-112 424.365,-112 464.478,-122.544"/>
<text text-anchor="middle" x="396" y="-126.3" font-family="Times,serif" font-size="14.00">alert threshold</text>
</g>
<!-- AndRef1&#45;&gt;2 -->
<g id="edge5" class="edge"><title>AndRef1&#45;&gt;2</title>
<path fill="none" stroke="black" d="M227.47,-75.4668C237.628,-78.6937 298.361,-97.9853 344.03,-112.492"/>
<polygon fill="black" stroke="black" points="343.223,-115.908 353.814,-115.6 345.343,-109.236 343.223,-115.908"/>
</g>
<!-- ContinuousAlertThreshold -->
<g id="node9" class="node"><title>ContinuousAlertThreshold</title>
<path fill="none" stroke="black" d="M470.5,-220C470.5,-220 327.5,-220 327.5,-220 321.5,-220 315.5,-214 315.5,-208 315.5,-208 315.5,-196 315.5,-196 315.5,-190 321.5,-184 327.5,-184 327.5,-184 470.5,-184 470.5,-184 476.5,-184 482.5,-190 482.5,-196 482.5,-196 482.5,-208 482.5,-208 482.5,-214 476.5,-220 470.5,-220"/>
<text text-anchor="middle" x="399" y="-198.3" font-family="Times,serif" font-size="14.00">ContinuousAlertThreshold</text>
</g>
<!-- 2&#45;&gt;ContinuousAlertThreshold -->
<g id="edge4" class="edge"><title>2&#45;&gt;ContinuousAlertThreshold</title>
<path fill="none" stroke="black" d="M396.742,-148.303C397.072,-156.017 397.469,-165.288 397.838,-173.888"/>
<polygon fill="black" stroke="black" points="394.342,-174.055 398.267,-183.896 401.335,-173.755 394.342,-174.055"/>
</g>
<!-- AndRef4 -->
<g id="node15" class="node"><title>AndRef4</title>
<ellipse fill="black" stroke="black" cx="496" cy="-258" rx="1.8" ry="1.8"/>
</g>
<!-- ContinuousAlertThreshold&#45;&gt;AndRef4 -->
<g id="edge13" class="edge"><title>ContinuousAlertThreshold&#45;&gt;AndRef4</title>
<path fill="none" stroke="black" d="M429.691,-220.086C455.445,-234.423 488.979,-253.091 495.04,-256.466"/>
</g>
<!-- ContinuousAlertThreshold[high] -->
<g id="node10" class="node"><title>ContinuousAlertThreshold[high]</title>
<path fill="none" stroke="black" d="M188.5,-36C188.5,-36 11.5,-36 11.5,-36 5.5,-36 -0.5,-30 -0.5,-24 -0.5,-24 -0.5,-12 -0.5,-12 -0.5,-6 5.5,-0 11.5,-0 11.5,-0 188.5,-0 188.5,-0 194.5,-0 200.5,-6 200.5,-12 200.5,-12 200.5,-24 200.5,-24 200.5,-30 194.5,-36 188.5,-36"/>
<text text-anchor="middle" x="100" y="-14.3" font-family="Times,serif" font-size="14.00">ContinuousAlertThreshold[high]</text>
</g>
<!-- ContinuousAlertThreshold[high]&#45;&gt;AndRef1 -->
<g id="edge6" class="edge"><title>ContinuousAlertThreshold[high]&#45;&gt;AndRef1</title>
<path fill="none" stroke="black" d="M139.867,-36.0859C173.321,-50.4231 216.88,-69.0913 224.753,-72.4655"/>
</g>
<!-- AndRef2 -->
<g id="node11" class="node"><title>AndRef2</title>
<ellipse fill="black" stroke="black" cx="374" cy="-74" rx="1.8" ry="1.8"/>
</g>
<!-- AndRef2&#45;&gt;2 -->
<g id="edge7" class="edge"><title>AndRef2&#45;&gt;2</title>
<path fill="none" stroke="black" d="M374.382,-75.9373C375.737,-79.2635 380.487,-90.9215 385.19,-102.466"/>
<polygon fill="black" stroke="black" points="382.04,-104.011 389.054,-111.951 388.522,-101.37 382.04,-104.011"/>
</g>
<!-- ContinuousAlertThreshold[medium] -->
<g id="node12" class="node"><title>ContinuousAlertThreshold[medium]</title>
<path fill="none" stroke="black" d="M429,-36C429,-36 231,-36 231,-36 225,-36 219,-30 219,-24 219,-24 219,-12 219,-12 219,-6 225,-0 231,-0 231,-0 429,-0 429,-0 435,-0 441,-6 441,-12 441,-12 441,-24 441,-24 441,-30 435,-36 429,-36"/>
<text text-anchor="middle" x="330" y="-14.3" font-family="Times,serif" font-size="14.00">ContinuousAlertThreshold[medium]</text>
</g>
<!-- ContinuousAlertThreshold[medium]&#45;&gt;AndRef2 -->
<g id="edge8" class="edge"><title>ContinuousAlertThreshold[medium]&#45;&gt;AndRef2</title>
<path fill="none" stroke="black" d="M343.922,-36.0859C355.201,-49.9287 369.77,-67.809 373.236,-72.0627"/>
</g>
<!-- AndRef3 -->
<g id="node13" class="node"><title>AndRef3</title>
<ellipse fill="black" stroke="black" cx="455" cy="-74" rx="1.8" ry="1.8"/>
</g>
<!-- AndRef3&#45;&gt;2 -->
<g id="edge9" class="edge"><title>AndRef3&#45;&gt;2</title>
<path fill="none" stroke="black" d="M453.976,-75.9373C450.087,-79.4963 435.776,-92.5945 422.347,-104.886"/>
<polygon fill="black" stroke="black" points="419.641,-102.618 414.627,-111.951 424.367,-107.781 419.641,-102.618"/>
</g>
<!-- ContinuousAlertThreshold[low] -->
<g id="node14" class="node"><title>ContinuousAlertThreshold[low]</title>
<path fill="none" stroke="black" d="M644.5,-36C644.5,-36 471.5,-36 471.5,-36 465.5,-36 459.5,-30 459.5,-24 459.5,-24 459.5,-12 459.5,-12 459.5,-6 465.5,-0 471.5,-0 471.5,-0 644.5,-0 644.5,-0 650.5,-0 656.5,-6 656.5,-12 656.5,-12 656.5,-24 656.5,-24 656.5,-30 650.5,-36 644.5,-36"/>
<text text-anchor="middle" x="558" y="-14.3" font-family="Times,serif" font-size="14.00">ContinuousAlertThreshold[low]</text>
</g>
<!-- ContinuousAlertThreshold[low]&#45;&gt;AndRef3 -->
<g id="edge10" class="edge"><title>ContinuousAlertThreshold[low]&#45;&gt;AndRef3</title>
<path fill="none" stroke="black" d="M525.41,-36.0859C498.063,-50.4231 462.456,-69.0913 456.019,-72.4655"/>
</g>
<!-- 5 -->
<g id="node16" class="node"><title>5</title>
<polygon fill="none" stroke="black" points="723.92,-306.544 723.92,-321.456 663.631,-332 578.369,-332 518.08,-321.456 518.08,-306.544 578.369,-296 663.631,-296 723.92,-306.544"/>
<text text-anchor="middle" x="621" y="-310.3" font-family="Times,serif" font-size="14.00">fraud detection method</text>
</g>
<!-- AndRef4&#45;&gt;5 -->
<g id="edge12" class="edge"><title>AndRef4&#45;&gt;5</title>
<path fill="none" stroke="black" d="M497.404,-259.606C504.866,-262.83 540.714,-278.316 571.895,-291.786"/>
<polygon fill="black" stroke="black" points="570.817,-295.133 581.385,-295.886 573.593,-288.707 570.817,-295.133"/>
</g>
<!-- ContinuousTrueAlertRate -->
<g id="node17" class="node"><title>ContinuousTrueAlertRate</title>
<path fill="none" stroke="black" d="M707,-404C707,-404 569,-404 569,-404 563,-404 557,-398 557,-392 557,-392 557,-380 557,-380 557,-374 563,-368 569,-368 569,-368 707,-368 707,-368 713,-368 719,-374 719,-380 719,-380 719,-392 719,-392 719,-398 713,-404 707,-404"/>
<text text-anchor="middle" x="638" y="-382.3" font-family="Times,serif" font-size="14.00">ContinuousTrueAlertRate</text>
</g>
<!-- 5&#45;&gt;ContinuousTrueAlertRate -->
<g id="edge11" class="edge"><title>5&#45;&gt;ContinuousTrueAlertRate</title>
<path fill="none" stroke="black" d="M625.202,-332.303C627.096,-340.102 629.377,-349.491 631.484,-358.171"/>
<polygon fill="black" stroke="black" points="628.085,-359.004 633.846,-367.896 634.887,-357.352 628.085,-359.004"/>
</g>
<!-- AndRef6 -->
<g id="node20" class="node"><title>AndRef6</title>
<ellipse fill="black" stroke="black" cx="709" cy="-442" rx="1.8" ry="1.8"/>
</g>
<!-- ContinuousTrueAlertRate&#45;&gt;AndRef6 -->
<g id="edge18" class="edge"><title>ContinuousTrueAlertRate&#45;&gt;AndRef6</title>
<path fill="none" stroke="black" d="M660.465,-404.086C678.666,-417.929 702.175,-435.809 707.768,-440.063"/>
</g>
<!-- AndRef5 -->
<g id="node18" class="node"><title>AndRef5</title>
<ellipse fill="black" stroke="black" cx="621" cy="-258" rx="1.8" ry="1.8"/>
</g>
<!-- AndRef5&#45;&gt;5 -->
<g id="edge14" class="edge"><title>AndRef5&#45;&gt;5</title>
<path fill="none" stroke="black" d="M621,-259.937C621,-263.197 621,-274.459 621,-285.773"/>
<polygon fill="black" stroke="black" points="617.5,-285.951 621,-295.951 624.5,-285.951 617.5,-285.951"/>
</g>
<!-- ContinuousTrueAlertRate[rule&#45;based] -->
<g id="node19" class="node"><title>ContinuousTrueAlertRate[rule&#45;based]</title>
<path fill="none" stroke="black" d="M724,-220C724,-220 518,-220 518,-220 512,-220 506,-214 506,-208 506,-208 506,-196 506,-196 506,-190 512,-184 518,-184 518,-184 724,-184 724,-184 730,-184 736,-190 736,-196 736,-196 736,-208 736,-208 736,-214 730,-220 724,-220"/>
<text text-anchor="middle" x="621" y="-198.3" font-family="Times,serif" font-size="14.00">ContinuousTrueAlertRate[rule&#45;based]</text>
</g>
<!-- ContinuousTrueAlertRate[rule&#45;based]&#45;&gt;AndRef5 -->
<g id="edge15" class="edge"><title>ContinuousTrueAlertRate[rule&#45;based]&#45;&gt;AndRef5</title>
<path fill="none" stroke="black" d="M621,-220.086C621,-233.929 621,-251.809 621,-256.063"/>
</g>
<!-- 7 -->
<g id="node21" class="node"><title>7</title>
<polygon fill="none" stroke="black" points="912.327,-490.544 912.327,-505.456 869.373,-516 808.627,-516 765.673,-505.456 765.673,-490.544 808.627,-480 869.373,-480 912.327,-490.544"/>
<text text-anchor="middle" x="839" y="-494.3" font-family="Times,serif" font-size="14.00">processing type</text>
</g>
<!-- AndRef6&#45;&gt;7 -->
<g id="edge17" class="edge"><title>AndRef6&#45;&gt;7</title>
<path fill="none" stroke="black" d="M710.46,-443.606C718.559,-446.971 758.807,-463.689 792.138,-477.534"/>
<polygon fill="black" stroke="black" points="791.191,-480.931 801.769,-481.535 793.877,-474.466 791.191,-480.931"/>
</g>
<!-- NbrFraudBeforeDetection -->
<g id="node22" class="node"><title>NbrFraudBeforeDetection</title>
<path fill="none" stroke="black" d="M918.5,-588C918.5,-588 779.5,-588 779.5,-588 773.5,-588 767.5,-582 767.5,-576 767.5,-576 767.5,-564 767.5,-564 767.5,-558 773.5,-552 779.5,-552 779.5,-552 918.5,-552 918.5,-552 924.5,-552 930.5,-558 930.5,-564 930.5,-564 930.5,-576 930.5,-576 930.5,-582 924.5,-588 918.5,-588"/>
<text text-anchor="middle" x="849" y="-566.3" font-family="Times,serif" font-size="14.00">NbrFraudBeforeDetection</text>
</g>
<!-- 7&#45;&gt;NbrFraudBeforeDetection -->
<g id="edge16" class="edge"><title>7&#45;&gt;NbrFraudBeforeDetection</title>
<path fill="none" stroke="black" d="M841.472,-516.303C842.574,-524.017 843.898,-533.288 845.127,-541.888"/>
<polygon fill="black" stroke="black" points="841.677,-542.491 846.557,-551.896 848.607,-541.501 841.677,-542.491"/>
</g>
<!-- AndRef13 -->
<g id="node38" class="node"><title>AndRef13</title>
<ellipse fill="black" stroke="black" cx="849" cy="-642" rx="1.8" ry="1.8"/>
</g>
<!-- NbrFraudBeforeDetection&#45;&gt;AndRef13 -->
<g id="edge36" class="edge"><title>NbrFraudBeforeDetection&#45;&gt;AndRef13</title>
<path fill="none" stroke="black" d="M849,-588.303C849,-607.089 849,-635.105 849,-640.193"/>
</g>
<!-- AndRef15 -->
<g id="node44" class="node"><title>AndRef15</title>
<ellipse fill="black" stroke="black" cx="871" cy="-642" rx="1.8" ry="1.8"/>
</g>
<!-- NbrFraudBeforeDetection&#45;&gt;AndRef15 -->
<g id="edge41" class="edge"><title>NbrFraudBeforeDetection&#45;&gt;AndRef15</title>
<path fill="none" stroke="black" d="M854.438,-588.303C860.342,-607.089 869.147,-635.105 870.746,-640.193"/>
</g>
<!-- NbrFraudPerCompromisedAccountPerDay -->
<g id="node23" class="node"><title>NbrFraudPerCompromisedAccountPerDay</title>
<path fill="none" stroke="black" d="M1166,-404C1166,-404 932,-404 932,-404 926,-404 920,-398 920,-392 920,-392 920,-380 920,-380 920,-374 926,-368 932,-368 932,-368 1166,-368 1166,-368 1172,-368 1178,-374 1178,-380 1178,-380 1178,-392 1178,-392 1178,-398 1172,-404 1166,-404"/>
<text text-anchor="middle" x="1049" y="-382.3" font-family="Times,serif" font-size="14.00">NbrFraudPerCompromisedAccountPerDay</text>
</g>
<!-- AndRef12 -->
<g id="node37" class="node"><title>AndRef12</title>
<ellipse fill="black" stroke="black" cx="839" cy="-442" rx="1.8" ry="1.8"/>
</g>
<!-- NbrFraudPerCompromisedAccountPerDay&#45;&gt;AndRef12 -->
<g id="edge32" class="edge"><title>NbrFraudPerCompromisedAccountPerDay&#45;&gt;AndRef12</title>
<path fill="none" stroke="black" d="M982.843,-404.012C926.097,-418.604 851.731,-437.726 840.458,-440.625"/>
</g>
<!-- AndRef14 -->
<g id="node43" class="node"><title>AndRef14</title>
<ellipse fill="black" stroke="black" cx="1049" cy="-442" rx="1.8" ry="1.8"/>
</g>
<!-- NbrFraudPerCompromisedAccountPerDay&#45;&gt;AndRef14 -->
<g id="edge38" class="edge"><title>NbrFraudPerCompromisedAccountPerDay&#45;&gt;AndRef14</title>
<path fill="none" stroke="black" d="M1049,-404.086C1049,-417.929 1049,-435.809 1049,-440.063"/>
</g>
<!-- AndRef7 -->
<g id="node24" class="node"><title>AndRef7</title>
<ellipse fill="black" stroke="black" cx="803" cy="-74" rx="1.8" ry="1.8"/>
</g>
<!-- 8 -->
<g id="node25" class="node"><title>8</title>
<polygon fill="none" stroke="black" points="936.478,-122.544 936.478,-137.456 896.365,-148 839.635,-148 799.522,-137.456 799.522,-122.544 839.635,-112 896.365,-112 936.478,-122.544"/>
<text text-anchor="middle" x="868" y="-126.3" font-family="Times,serif" font-size="14.00">alert threshold</text>
</g>
<!-- AndRef7&#45;&gt;8 -->
<g id="edge20" class="edge"><title>AndRef7&#45;&gt;8</title>
<path fill="none" stroke="black" d="M804.128,-75.9373C808.452,-79.5296 824.474,-92.8401 839.388,-105.23"/>
<polygon fill="black" stroke="black" points="837.55,-108.253 847.478,-111.951 842.023,-102.869 837.55,-108.253"/>
</g>
<!-- BatchAlertThreshold -->
<g id="node26" class="node"><title>BatchAlertThreshold</title>
<path fill="none" stroke="black" d="M922.5,-220C922.5,-220 811.5,-220 811.5,-220 805.5,-220 799.5,-214 799.5,-208 799.5,-208 799.5,-196 799.5,-196 799.5,-190 805.5,-184 811.5,-184 811.5,-184 922.5,-184 922.5,-184 928.5,-184 934.5,-190 934.5,-196 934.5,-196 934.5,-208 934.5,-208 934.5,-214 928.5,-220 922.5,-220"/>
<text text-anchor="middle" x="867" y="-198.3" font-family="Times,serif" font-size="14.00">BatchAlertThreshold</text>
</g>
<!-- 8&#45;&gt;BatchAlertThreshold -->
<g id="edge19" class="edge"><title>8&#45;&gt;BatchAlertThreshold</title>
<path fill="none" stroke="black" d="M867.753,-148.303C867.643,-156.017 867.51,-165.288 867.387,-173.888"/>
<polygon fill="black" stroke="black" points="863.888,-173.847 867.244,-183.896 870.887,-173.947 863.888,-173.847"/>
</g>
<!-- AndRef10 -->
<g id="node32" class="node"><title>AndRef10</title>
<ellipse fill="black" stroke="black" cx="867" cy="-258" rx="1.8" ry="1.8"/>
</g>
<!-- BatchAlertThreshold&#45;&gt;AndRef10 -->
<g id="edge28" class="edge"><title>BatchAlertThreshold&#45;&gt;AndRef10</title>
<path fill="none" stroke="black" d="M867,-220.086C867,-233.929 867,-251.809 867,-256.063"/>
</g>
<!-- BatchAlertThreshold[high] -->
<g id="node27" class="node"><title>BatchAlertThreshold[high]</title>
<path fill="none" stroke="black" d="M831.5,-36C831.5,-36 686.5,-36 686.5,-36 680.5,-36 674.5,-30 674.5,-24 674.5,-24 674.5,-12 674.5,-12 674.5,-6 680.5,-0 686.5,-0 686.5,-0 831.5,-0 831.5,-0 837.5,-0 843.5,-6 843.5,-12 843.5,-12 843.5,-24 843.5,-24 843.5,-30 837.5,-36 831.5,-36"/>
<text text-anchor="middle" x="759" y="-14.3" font-family="Times,serif" font-size="14.00">BatchAlertThreshold[high]</text>
</g>
<!-- BatchAlertThreshold[high]&#45;&gt;AndRef7 -->
<g id="edge21" class="edge"><title>BatchAlertThreshold[high]&#45;&gt;AndRef7</title>
<path fill="none" stroke="black" d="M772.922,-36.0859C784.201,-49.9287 798.77,-67.809 802.236,-72.0627"/>
</g>
<!-- AndRef8 -->
<g id="node28" class="node"><title>AndRef8</title>
<ellipse fill="black" stroke="black" cx="913" cy="-74" rx="1.8" ry="1.8"/>
</g>
<!-- AndRef8&#45;&gt;8 -->
<g id="edge22" class="edge"><title>AndRef8&#45;&gt;8</title>
<path fill="none" stroke="black" d="M912.219,-75.9373C909.308,-79.4298 898.743,-92.1082 888.67,-104.196"/>
<polygon fill="black" stroke="black" points="885.92,-102.028 882.207,-111.951 891.298,-106.51 885.92,-102.028"/>
</g>
<!-- BatchAlertThreshold[medium] -->
<g id="node29" class="node"><title>BatchAlertThreshold[medium]</title>
<path fill="none" stroke="black" d="M1040,-36C1040,-36 874,-36 874,-36 868,-36 862,-30 862,-24 862,-24 862,-12 862,-12 862,-6 868,-0 874,-0 874,-0 1040,-0 1040,-0 1046,-0 1052,-6 1052,-12 1052,-12 1052,-24 1052,-24 1052,-30 1046,-36 1040,-36"/>
<text text-anchor="middle" x="957" y="-14.3" font-family="Times,serif" font-size="14.00">BatchAlertThreshold[medium]</text>
</g>
<!-- BatchAlertThreshold[medium]&#45;&gt;AndRef8 -->
<g id="edge23" class="edge"><title>BatchAlertThreshold[medium]&#45;&gt;AndRef8</title>
<path fill="none" stroke="black" d="M943.078,-36.0859C931.799,-49.9287 917.23,-67.809 913.764,-72.0627"/>
</g>
<!-- AndRef9 -->
<g id="node30" class="node"><title>AndRef9</title>
<ellipse fill="black" stroke="black" cx="1066" cy="-74" rx="1.8" ry="1.8"/>
</g>
<!-- AndRef9&#45;&gt;8 -->
<g id="edge24" class="edge"><title>AndRef9&#45;&gt;8</title>
<path fill="none" stroke="black" d="M1064.74,-75.3448C1054.07,-78.2537 978.189,-98.9484 923.859,-113.766"/>
<polygon fill="black" stroke="black" points="922.712,-110.451 913.985,-116.459 924.554,-117.204 922.712,-110.451"/>
</g>
<!-- BatchAlertThreshold[low] -->
<g id="node31" class="node"><title>BatchAlertThreshold[low]</title>
<path fill="none" stroke="black" d="M1223.5,-36C1223.5,-36 1082.5,-36 1082.5,-36 1076.5,-36 1070.5,-30 1070.5,-24 1070.5,-24 1070.5,-12 1070.5,-12 1070.5,-6 1076.5,-0 1082.5,-0 1082.5,-0 1223.5,-0 1223.5,-0 1229.5,-0 1235.5,-6 1235.5,-12 1235.5,-12 1235.5,-24 1235.5,-24 1235.5,-30 1229.5,-36 1223.5,-36"/>
<text text-anchor="middle" x="1153" y="-14.3" font-family="Times,serif" font-size="14.00">BatchAlertThreshold[low]</text>
</g>
<!-- BatchAlertThreshold[low]&#45;&gt;AndRef9 -->
<g id="edge25" class="edge"><title>BatchAlertThreshold[low]&#45;&gt;AndRef9</title>
<path fill="none" stroke="black" d="M1125.47,-36.0859C1103.17,-49.9287 1074.36,-67.809 1067.51,-72.0627"/>
</g>
<!-- 11 -->
<g id="node33" class="node"><title>11</title>
<polygon fill="none" stroke="black" points="969.92,-306.544 969.92,-321.456 909.631,-332 824.369,-332 764.08,-321.456 764.08,-306.544 824.369,-296 909.631,-296 969.92,-306.544"/>
<text text-anchor="middle" x="867" y="-310.3" font-family="Times,serif" font-size="14.00">fraud detection method</text>
</g>
<!-- AndRef10&#45;&gt;11 -->
<g id="edge27" class="edge"><title>AndRef10&#45;&gt;11</title>
<path fill="none" stroke="black" d="M867,-259.937C867,-263.197 867,-274.459 867,-285.773"/>
<polygon fill="black" stroke="black" points="863.5,-285.951 867,-295.951 870.5,-285.951 863.5,-285.951"/>
</g>
<!-- BatchTrueAlertRate -->
<g id="node34" class="node"><title>BatchTrueAlertRate</title>
<path fill="none" stroke="black" d="M890,-404C890,-404 784,-404 784,-404 778,-404 772,-398 772,-392 772,-392 772,-380 772,-380 772,-374 778,-368 784,-368 784,-368 890,-368 890,-368 896,-368 902,-374 902,-380 902,-380 902,-392 902,-392 902,-398 896,-404 890,-404"/>
<text text-anchor="middle" x="837" y="-382.3" font-family="Times,serif" font-size="14.00">BatchTrueAlertRate</text>
</g>
<!-- 11&#45;&gt;BatchTrueAlertRate -->
<g id="edge26" class="edge"><title>11&#45;&gt;BatchTrueAlertRate</title>
<path fill="none" stroke="black" d="M859.584,-332.303C856.206,-340.187 852.13,-349.696 848.377,-358.454"/>
<polygon fill="black" stroke="black" points="845.053,-357.325 844.33,-367.896 851.487,-360.083 845.053,-357.325"/>
</g>
<!-- BatchTrueAlertRate&#45;&gt;AndRef12 -->
<g id="edge33" class="edge"><title>BatchTrueAlertRate&#45;&gt;AndRef12</title>
<path fill="none" stroke="black" d="M837.633,-404.086C838.146,-417.929 838.808,-435.809 838.965,-440.063"/>
</g>
<!-- AndRef11 -->
<g id="node35" class="node"><title>AndRef11</title>
<ellipse fill="black" stroke="black" cx="970" cy="-258" rx="1.8" ry="1.8"/>
</g>
<!-- AndRef11&#45;&gt;11 -->
<g id="edge29" class="edge"><title>AndRef11&#45;&gt;11</title>
<path fill="none" stroke="black" d="M968.843,-259.606C962.8,-262.775 934.167,-277.786 908.795,-291.088"/>
<polygon fill="black" stroke="black" points="906.874,-288.143 899.643,-295.886 910.125,-294.343 906.874,-288.143"/>
</g>
<!-- BatchTrueAlertRate[rule&#45;based] -->
<g id="node36" class="node"><title>BatchTrueAlertRate[rule&#45;based]</title>
<path fill="none" stroke="black" d="M1139,-220C1139,-220 965,-220 965,-220 959,-220 953,-214 953,-208 953,-208 953,-196 953,-196 953,-190 959,-184 965,-184 965,-184 1139,-184 1139,-184 1145,-184 1151,-190 1151,-196 1151,-196 1151,-208 1151,-208 1151,-214 1145,-220 1139,-220"/>
<text text-anchor="middle" x="1052" y="-198.3" font-family="Times,serif" font-size="14.00">BatchTrueAlertRate[rule&#45;based]</text>
</g>
<!-- BatchTrueAlertRate[rule&#45;based]&#45;&gt;AndRef11 -->
<g id="edge30" class="edge"><title>BatchTrueAlertRate[rule&#45;based]&#45;&gt;AndRef11</title>
<path fill="none" stroke="black" d="M1026.05,-220.086C1005.03,-233.929 977.883,-251.809 971.423,-256.063"/>
</g>
<!-- AndRef12&#45;&gt;7 -->
<g id="edge31" class="edge"><title>AndRef12&#45;&gt;7</title>
<path fill="none" stroke="black" d="M839,-443.937C839,-447.197 839,-458.459 839,-469.773"/>
<polygon fill="black" stroke="black" points="835.5,-469.951 839,-479.951 842.5,-469.951 835.5,-469.951"/>
</g>
<!-- 14 -->
<g id="node39" class="node"><title>14</title>
<polygon fill="none" stroke="black" points="933.327,-706.544 933.327,-721.456 890.373,-732 829.627,-732 786.673,-721.456 786.673,-706.544 829.627,-696 890.373,-696 933.327,-706.544"/>
<text text-anchor="middle" x="860" y="-710.3" font-family="Times,serif" font-size="14.00">blocking policy</text>
</g>
<!-- AndRef13&#45;&gt;14 -->
<g id="edge35" class="edge"><title>AndRef13&#45;&gt;14</title>
<path fill="none" stroke="black" d="M849.155,-643.99C849.878,-648.586 852.985,-668.356 855.689,-685.564"/>
<polygon fill="black" stroke="black" points="852.285,-686.454 857.295,-695.789 859.201,-685.367 852.285,-686.454"/>
</g>
<!-- NbrFraudPerAccountBeforeBlocked -->
<g id="node40" class="node"><title>NbrFraudPerAccountBeforeBlocked</title>
<path fill="none" stroke="black" d="M959,-804C959,-804 761,-804 761,-804 755,-804 749,-798 749,-792 749,-792 749,-780 749,-780 749,-774 755,-768 761,-768 761,-768 959,-768 959,-768 965,-768 971,-774 971,-780 971,-780 971,-792 971,-792 971,-798 965,-804 959,-804"/>
<text text-anchor="middle" x="860" y="-782.3" font-family="Times,serif" font-size="14.00">NbrFraudPerAccountBeforeBlocked</text>
</g>
<!-- 14&#45;&gt;NbrFraudPerAccountBeforeBlocked -->
<g id="edge34" class="edge"><title>14&#45;&gt;NbrFraudPerAccountBeforeBlocked</title>
<path fill="none" stroke="black" d="M860,-732.303C860,-740.017 860,-749.288 860,-757.888"/>
<polygon fill="black" stroke="black" points="856.5,-757.896 860,-767.896 863.5,-757.896 856.5,-757.896"/>
</g>
<!-- NbrFraudPerAccountBeforeBlocked&#45;&gt;AndRef16 -->
<g id="edge46" class="edge"><title>NbrFraudPerAccountBeforeBlocked&#45;&gt;AndRef16</title>
<path fill="none" stroke="black" d="M792.583,-804.012C734.756,-818.604 658.973,-837.726 647.485,-840.625"/>
</g>
<!-- InvestigationDelay -->
<g id="node41" class="node"><title>InvestigationDelay</title>
<path fill="none" stroke="black" d="M1307.5,-404C1307.5,-404 1208.5,-404 1208.5,-404 1202.5,-404 1196.5,-398 1196.5,-392 1196.5,-392 1196.5,-380 1196.5,-380 1196.5,-374 1202.5,-368 1208.5,-368 1208.5,-368 1307.5,-368 1307.5,-368 1313.5,-368 1319.5,-374 1319.5,-380 1319.5,-380 1319.5,-392 1319.5,-392 1319.5,-398 1313.5,-404 1307.5,-404"/>
<text text-anchor="middle" x="1258" y="-382.3" font-family="Times,serif" font-size="14.00">InvestigationDelay</text>
</g>
<!-- InvestigationDelay&#45;&gt;AndRef14 -->
<g id="edge39" class="edge"><title>InvestigationDelay&#45;&gt;AndRef14</title>
<path fill="none" stroke="black" d="M1196.71,-402.837C1139.37,-417.65 1060.98,-437.905 1050.24,-440.68"/>
</g>
<!-- NbrFraudDuringInvestigation -->
<g id="node42" class="node"><title>NbrFraudDuringInvestigation</title>
<path fill="none" stroke="black" d="M1126,-588C1126,-588 966,-588 966,-588 960,-588 954,-582 954,-576 954,-576 954,-564 954,-564 954,-558 960,-552 966,-552 966,-552 1126,-552 1126,-552 1132,-552 1138,-558 1138,-564 1138,-564 1138,-576 1138,-576 1138,-582 1132,-588 1126,-588"/>
<text text-anchor="middle" x="1046" y="-566.3" font-family="Times,serif" font-size="14.00">NbrFraudDuringInvestigation</text>
</g>
<!-- NbrFraudDuringInvestigation&#45;&gt;AndRef15 -->
<g id="edge42" class="edge"><title>NbrFraudDuringInvestigation&#45;&gt;AndRef15</title>
<path fill="none" stroke="black" d="M1003.19,-588.124C955.024,-607.39 882.162,-636.535 872.154,-640.538"/>
</g>
<!-- AndRef14&#45;&gt;NbrFraudDuringInvestigation -->
<g id="edge37" class="edge"><title>AndRef14&#45;&gt;NbrFraudDuringInvestigation</title>
<path fill="none" stroke="black" d="M1048.98,-443.805C1048.81,-451.143 1047.48,-506.985 1046.65,-541.566"/>
<polygon fill="black" stroke="black" points="1043.14,-541.877 1046.41,-551.958 1050.14,-542.044 1043.14,-541.877"/>
</g>
<!-- AndRef15&#45;&gt;14 -->
<g id="edge40" class="edge"><title>AndRef15&#45;&gt;14</title>
<path fill="none" stroke="black" d="M870.845,-643.99C870.122,-648.586 867.015,-668.356 864.311,-685.564"/>
<polygon fill="black" stroke="black" points="860.799,-685.367 862.705,-695.789 867.715,-686.454 860.799,-685.367"/>
</g>
<!-- FinancialLoss -->
<g id="node45" class="node"><title>FinancialLoss</title>
<path fill="none" stroke="black" d="M681.5,-916C681.5,-916 610.5,-916 610.5,-916 604.5,-916 598.5,-910 598.5,-904 598.5,-904 598.5,-892 598.5,-892 598.5,-886 604.5,-880 610.5,-880 610.5,-880 681.5,-880 681.5,-880 687.5,-880 693.5,-886 693.5,-892 693.5,-892 693.5,-904 693.5,-904 693.5,-910 687.5,-916 681.5,-916"/>
<text text-anchor="middle" x="646" y="-894.3" font-family="Times,serif" font-size="14.00">FinancialLoss</text>
</g>
<!-- FinancialLoss&#45;&gt;AndRef17 -->
<g id="edge49" class="edge"><title>FinancialLoss&#45;&gt;AndRef17</title>
<path fill="none" stroke="black" d="M623.852,-916.086C605.907,-929.929 582.729,-947.809 577.215,-952.063"/>
</g>
<!-- AndRef16&#45;&gt;FinancialLoss -->
<g id="edge43" class="edge"><title>AndRef16&#45;&gt;FinancialLoss</title>
<path fill="none" stroke="black" d="M646,-843.937C646,-847.197 646,-858.459 646,-869.773"/>
<polygon fill="black" stroke="black" points="642.5,-869.951 646,-879.951 649.5,-869.951 642.5,-869.951"/>
</g>
<!-- Benefit -->
<g id="node47" class="node"><title>Benefit</title>
<path fill="none" stroke="black" d="M592.5,-1028C592.5,-1028 559.5,-1028 559.5,-1028 553.5,-1028 547.5,-1022 547.5,-1016 547.5,-1016 547.5,-1004 547.5,-1004 547.5,-998 553.5,-992 559.5,-992 559.5,-992 592.5,-992 592.5,-992 598.5,-992 604.5,-998 604.5,-1004 604.5,-1004 604.5,-1016 604.5,-1016 604.5,-1022 598.5,-1028 592.5,-1028"/>
<text text-anchor="middle" x="576" y="-1006.3" font-family="Times,serif" font-size="14.00">Benefit</text>
</g>
<!-- AndRef17&#45;&gt;Benefit -->
<g id="edge47" class="edge"><title>AndRef17&#45;&gt;Benefit</title>
<path fill="none" stroke="black" d="M576,-955.937C576,-959.197 576,-970.459 576,-981.773"/>
<polygon fill="black" stroke="black" points="572.5,-981.951 576,-991.951 579.5,-981.951 572.5,-981.951"/>
</g>
</g>
</svg>
