<?xml version="1.0" encoding="UTF-8" standalone="no"?>
<!DOCTYPE svg PUBLIC "-//W3C//DTD SVG 1.1//EN"
 "http://www.w3.org/Graphics/SVG/1.1/DTD/svg11.dtd">
<!-- Generated by graphviz version 2.36.0 (20140111.2315)
 -->
<!-- Title: G Pages: 1 -->
<svg width="2893pt" height="852pt"
 viewBox="0.00 0.00 2893.00 852.00" xmlns="http://www.w3.org/2000/svg" xmlns:xlink="http://www.w3.org/1999/xlink">
<g id="graph0" class="graph" transform="scale(1 1) rotate(0) translate(4 848)">
<title>G</title>
<polygon fill="white" stroke="none" points="-4,4 -4,-848 2889,-848 2889,4 -4,4"/>
<!-- NbrAccounts -->
<g id="node1" class="node"><title>NbrAccounts</title>
<path fill="none" stroke="black" d="M1005.5,-476C1005.5,-476 938.5,-476 938.5,-476 932.5,-476 926.5,-470 926.5,-464 926.5,-464 926.5,-452 926.5,-452 926.5,-446 932.5,-440 938.5,-440 938.5,-440 1005.5,-440 1005.5,-440 1011.5,-440 1017.5,-446 1017.5,-452 1017.5,-452 1017.5,-464 1017.5,-464 1017.5,-470 1011.5,-476 1005.5,-476"/>
<text text-anchor="middle" x="972" y="-454.3" font-family="Times,serif" font-size="14.00">NbrAccounts</text>
</g>
<!-- AndRef0 -->
<g id="node5" class="node"><title>AndRef0</title>
<ellipse fill="black" stroke="black" cx="821" cy="-530" rx="1.8" ry="1.8"/>
</g>
<!-- NbrAccounts&#45;&gt;AndRef0 -->
<g id="edge2" class="edge"><title>NbrAccounts&#45;&gt;AndRef0</title>
<path fill="none" stroke="black" d="M935.061,-476.124C893.85,-495.228 831.687,-524.046 822.225,-528.432"/>
</g>
<!-- AndRef14 -->
<g id="node40" class="node"><title>AndRef14</title>
<ellipse fill="black" stroke="black" cx="1193" cy="-530" rx="1.8" ry="1.8"/>
</g>
<!-- NbrAccounts&#45;&gt;AndRef14 -->
<g id="edge38" class="edge"><title>NbrAccounts&#45;&gt;AndRef14</title>
<path fill="none" stroke="black" d="M1017.26,-473.334C1077.87,-492.534 1179.3,-524.659 1191.74,-528.6"/>
</g>
<!-- CompromisedAccountRatio -->
<g id="node2" class="node"><title>CompromisedAccountRatio</title>
<path fill="none" stroke="black" d="M620,-476C620,-476 470,-476 470,-476 464,-476 458,-470 458,-464 458,-464 458,-452 458,-452 458,-446 464,-440 470,-440 470,-440 620,-440 620,-440 626,-440 632,-446 632,-452 632,-452 632,-464 632,-464 632,-470 626,-476 620,-476"/>
<text text-anchor="middle" x="545" y="-454.3" font-family="Times,serif" font-size="14.00">CompromisedAccountRatio</text>
</g>
<!-- CompromisedAccountRatio&#45;&gt;AndRef0 -->
<g id="edge3" class="edge"><title>CompromisedAccountRatio&#45;&gt;AndRef0</title>
<path fill="none" stroke="black" d="M612.164,-476.034C688.755,-495.46 805.285,-525.014 819.552,-528.633"/>
</g>
<!-- NbrFraudPerCompromisedAccountPerDay -->
<g id="node3" class="node"><title>NbrFraudPerCompromisedAccountPerDay</title>
<path fill="none" stroke="black" d="M896,-476C896,-476 662,-476 662,-476 656,-476 650,-470 650,-464 650,-464 650,-452 650,-452 650,-446 656,-440 662,-440 662,-440 896,-440 896,-440 902,-440 908,-446 908,-452 908,-452 908,-464 908,-464 908,-470 902,-476 896,-476"/>
<text text-anchor="middle" x="779" y="-454.3" font-family="Times,serif" font-size="14.00">NbrFraudPerCompromisedAccountPerDay</text>
</g>
<!-- NbrFraudPerCompromisedAccountPerDay&#45;&gt;AndRef0 -->
<g id="edge4" class="edge"><title>NbrFraudPerCompromisedAccountPerDay&#45;&gt;AndRef0</title>
<path fill="none" stroke="black" d="M789.382,-476.303C800.653,-495.089 817.463,-523.105 820.516,-528.193"/>
</g>
<!-- NbrFraud -->
<g id="node4" class="node"><title>NbrFraud</title>
<path fill="none" stroke="black" d="M927.5,-620C927.5,-620 880.5,-620 880.5,-620 874.5,-620 868.5,-614 868.5,-608 868.5,-608 868.5,-596 868.5,-596 868.5,-590 874.5,-584 880.5,-584 880.5,-584 927.5,-584 927.5,-584 933.5,-584 939.5,-590 939.5,-596 939.5,-596 939.5,-608 939.5,-608 939.5,-614 933.5,-620 927.5,-620"/>
<text text-anchor="middle" x="904" y="-598.3" font-family="Times,serif" font-size="14.00">NbrFraud</text>
</g>
<!-- AndRef13 -->
<g id="node37" class="node"><title>AndRef13</title>
<ellipse fill="black" stroke="black" cx="1048" cy="-658" rx="1.8" ry="1.8"/>
</g>
<!-- NbrFraud&#45;&gt;AndRef13 -->
<g id="edge35" class="edge"><title>NbrFraud&#45;&gt;AndRef13</title>
<path fill="none" stroke="black" d="M939.596,-616.348C978.907,-631.09 1037.87,-653.2 1046.84,-656.564"/>
</g>
<!-- AndRef0&#45;&gt;NbrFraud -->
<g id="edge1" class="edge"><title>AndRef0&#45;&gt;NbrFraud</title>
<path fill="none" stroke="black" d="M821.932,-531.786C827.262,-536.281 854.396,-559.166 876.027,-577.408"/>
<polygon fill="black" stroke="black" points="873.795,-580.105 883.696,-583.876 878.308,-574.753 873.795,-580.105"/>
</g>
<!-- AndRef1 -->
<g id="node6" class="node"><title>AndRef1</title>
<ellipse fill="black" stroke="black" cx="229" cy="-74" rx="1.8" ry="1.8"/>
</g>
<!-- 2 -->
<g id="node7" class="node"><title>2</title>
<polygon fill="none" stroke="black" points="436.478,-122.544 436.478,-137.456 396.365,-148 339.635,-148 299.522,-137.456 299.522,-122.544 339.635,-112 396.365,-112 436.478,-122.544"/>
<text text-anchor="middle" x="368" y="-126.3" font-family="Times,serif" font-size="14.00">alert threshold</text>
</g>
<!-- AndRef1&#45;&gt;2 -->
<g id="edge6" class="edge"><title>AndRef1&#45;&gt;2</title>
<path fill="none" stroke="black" d="M230.561,-75.6064C239.459,-79.0634 284.653,-96.6205 320.822,-110.672"/>
<polygon fill="black" stroke="black" points="319.681,-113.983 330.27,-114.342 322.216,-107.459 319.681,-113.983"/>
</g>
<!-- ContinuousAlertThreshold -->
<g id="node8" class="node"><title>ContinuousAlertThreshold</title>
<path fill="none" stroke="black" d="M489.5,-220C489.5,-220 346.5,-220 346.5,-220 340.5,-220 334.5,-214 334.5,-208 334.5,-208 334.5,-196 334.5,-196 334.5,-190 340.5,-184 346.5,-184 346.5,-184 489.5,-184 489.5,-184 495.5,-184 501.5,-190 501.5,-196 501.5,-196 501.5,-208 501.5,-208 501.5,-214 495.5,-220 489.5,-220"/>
<text text-anchor="middle" x="418" y="-198.3" font-family="Times,serif" font-size="14.00">ContinuousAlertThreshold</text>
</g>
<!-- 2&#45;&gt;ContinuousAlertThreshold -->
<g id="edge5" class="edge"><title>2&#45;&gt;ContinuousAlertThreshold</title>
<path fill="none" stroke="black" d="M380.36,-148.303C386.233,-156.526 393.369,-166.517 399.842,-175.579"/>
<polygon fill="black" stroke="black" points="397.122,-177.793 405.783,-183.896 402.818,-173.724 397.122,-177.793"/>
</g>
<!-- AndRef4 -->
<g id="node14" class="node"><title>AndRef4</title>
<ellipse fill="black" stroke="black" cx="431" cy="-258" rx="1.8" ry="1.8"/>
</g>
<!-- ContinuousAlertThreshold&#45;&gt;AndRef4 -->
<g id="edge14" class="edge"><title>ContinuousAlertThreshold&#45;&gt;AndRef4</title>
<path fill="none" stroke="black" d="M422.113,-220.086C425.446,-233.929 429.75,-251.809 430.774,-256.063"/>
</g>
<!-- ContinuousAlertThreshold[high] -->
<g id="node9" class="node"><title>ContinuousAlertThreshold[high]</title>
<path fill="none" stroke="black" d="M188.5,-36C188.5,-36 11.5,-36 11.5,-36 5.5,-36 -0.5,-30 -0.5,-24 -0.5,-24 -0.5,-12 -0.5,-12 -0.5,-6 5.5,-0 11.5,-0 11.5,-0 188.5,-0 188.5,-0 194.5,-0 200.5,-6 200.5,-12 200.5,-12 200.5,-24 200.5,-24 200.5,-30 194.5,-36 188.5,-36"/>
<text text-anchor="middle" x="100" y="-14.3" font-family="Times,serif" font-size="14.00">ContinuousAlertThreshold[high]</text>
</g>
<!-- ContinuousAlertThreshold[high]&#45;&gt;AndRef1 -->
<g id="edge7" class="edge"><title>ContinuousAlertThreshold[high]&#45;&gt;AndRef1</title>
<path fill="none" stroke="black" d="M140.816,-36.0859C175.066,-50.4231 219.662,-69.0913 227.723,-72.4655"/>
</g>
<!-- AndRef2 -->
<g id="node10" class="node"><title>AndRef2</title>
<ellipse fill="black" stroke="black" cx="355" cy="-74" rx="1.8" ry="1.8"/>
</g>
<!-- AndRef2&#45;&gt;2 -->
<g id="edge8" class="edge"><title>AndRef2&#45;&gt;2</title>
<path fill="none" stroke="black" d="M355.226,-75.9373C356.018,-79.2302 358.777,-90.6892 361.529,-102.12"/>
<polygon fill="black" stroke="black" points="358.152,-103.048 363.896,-111.951 364.958,-101.41 358.152,-103.048"/>
</g>
<!-- ContinuousAlertThreshold[medium] -->
<g id="node11" class="node"><title>ContinuousAlertThreshold[medium]</title>
<path fill="none" stroke="black" d="M429,-36C429,-36 231,-36 231,-36 225,-36 219,-30 219,-24 219,-24 219,-12 219,-12 219,-6 225,-0 231,-0 231,-0 429,-0 429,-0 435,-0 441,-6 441,-12 441,-12 441,-24 441,-24 441,-30 435,-36 429,-36"/>
<text text-anchor="middle" x="330" y="-14.3" font-family="Times,serif" font-size="14.00">ContinuousAlertThreshold[medium]</text>
</g>
<!-- ContinuousAlertThreshold[medium]&#45;&gt;AndRef2 -->
<g id="edge9" class="edge"><title>ContinuousAlertThreshold[medium]&#45;&gt;AndRef2</title>
<path fill="none" stroke="black" d="M337.91,-36.0859C344.319,-49.9287 352.597,-67.809 354.566,-72.0627"/>
</g>
<!-- AndRef3 -->
<g id="node12" class="node"><title>AndRef3</title>
<ellipse fill="black" stroke="black" cx="455" cy="-74" rx="1.8" ry="1.8"/>
</g>
<!-- AndRef3&#45;&gt;2 -->
<g id="edge10" class="edge"><title>AndRef3&#45;&gt;2</title>
<path fill="none" stroke="black" d="M454.023,-75.6064C449.002,-78.7228 425.52,-93.2977 404.357,-106.433"/>
<polygon fill="black" stroke="black" points="402.447,-103.5 395.796,-111.747 406.139,-109.447 402.447,-103.5"/>
</g>
<!-- ContinuousAlertThreshold[low] -->
<g id="node13" class="node"><title>ContinuousAlertThreshold[low]</title>
<path fill="none" stroke="black" d="M644.5,-36C644.5,-36 471.5,-36 471.5,-36 465.5,-36 459.5,-30 459.5,-24 459.5,-24 459.5,-12 459.5,-12 459.5,-6 465.5,-0 471.5,-0 471.5,-0 644.5,-0 644.5,-0 650.5,-0 656.5,-6 656.5,-12 656.5,-12 656.5,-24 656.5,-24 656.5,-30 650.5,-36 644.5,-36"/>
<text text-anchor="middle" x="558" y="-14.3" font-family="Times,serif" font-size="14.00">ContinuousAlertThreshold[low]</text>
</g>
<!-- ContinuousAlertThreshold[low]&#45;&gt;AndRef3 -->
<g id="edge11" class="edge"><title>ContinuousAlertThreshold[low]&#45;&gt;AndRef3</title>
<path fill="none" stroke="black" d="M525.41,-36.0859C498.063,-50.4231 462.456,-69.0913 456.019,-72.4655"/>
</g>
<!-- 5 -->
<g id="node15" class="node"><title>5</title>
<polygon fill="none" stroke="black" points="757.92,-306.544 757.92,-321.456 697.631,-332 612.369,-332 552.08,-321.456 552.08,-306.544 612.369,-296 697.631,-296 757.92,-306.544"/>
<text text-anchor="middle" x="655" y="-310.3" font-family="Times,serif" font-size="14.00">fraud detection method</text>
</g>
<!-- AndRef4&#45;&gt;5 -->
<g id="edge13" class="edge"><title>AndRef4&#45;&gt;5</title>
<path fill="none" stroke="black" d="M432.43,-259.345C444.131,-262.165 525.201,-281.709 586.148,-296.402"/>
<polygon fill="black" stroke="black" points="585.582,-299.865 596.124,-298.807 587.223,-293.06 585.582,-299.865"/>
</g>
<!-- ContinuousTrueAlertRate -->
<g id="node16" class="node"><title>ContinuousTrueAlertRate</title>
<path fill="none" stroke="black" d="M835,-404C835,-404 697,-404 697,-404 691,-404 685,-398 685,-392 685,-392 685,-380 685,-380 685,-374 691,-368 697,-368 697,-368 835,-368 835,-368 841,-368 847,-374 847,-380 847,-380 847,-392 847,-392 847,-398 841,-404 835,-404"/>
<text text-anchor="middle" x="766" y="-382.3" font-family="Times,serif" font-size="14.00">ContinuousTrueAlertRate</text>
</g>
<!-- 5&#45;&gt;ContinuousTrueAlertRate -->
<g id="edge12" class="edge"><title>5&#45;&gt;ContinuousTrueAlertRate</title>
<path fill="none" stroke="black" d="M682.154,-332.124C696.533,-341.192 714.381,-352.448 729.91,-362.241"/>
<polygon fill="black" stroke="black" points="728.416,-365.436 738.742,-367.81 732.15,-359.516 728.416,-365.436"/>
</g>
<!-- AndRef6 -->
<g id="node19" class="node"><title>AndRef6</title>
<ellipse fill="black" stroke="black" cx="1037" cy="-458" rx="1.8" ry="1.8"/>
</g>
<!-- ContinuousTrueAlertRate&#45;&gt;AndRef6 -->
<g id="edge19" class="edge"><title>ContinuousTrueAlertRate&#45;&gt;AndRef6</title>
<path fill="none" stroke="black" d="M847.162,-396.585C912.257,-405.529 997.318,-420.428 1026,-440 1032.27,-444.28 1035.79,-453.44 1036.74,-456.198"/>
</g>
<!-- AndRef5 -->
<g id="node17" class="node"><title>AndRef5</title>
<ellipse fill="black" stroke="black" cx="655" cy="-258" rx="1.8" ry="1.8"/>
</g>
<!-- AndRef5&#45;&gt;5 -->
<g id="edge15" class="edge"><title>AndRef5&#45;&gt;5</title>
<path fill="none" stroke="black" d="M655,-259.937C655,-263.197 655,-274.459 655,-285.773"/>
<polygon fill="black" stroke="black" points="651.5,-285.951 655,-295.951 658.5,-285.951 651.5,-285.951"/>
</g>
<!-- ContinuousTrueAlertRate[rule&#45;based] -->
<g id="node18" class="node"><title>ContinuousTrueAlertRate[rule&#45;based]</title>
<path fill="none" stroke="black" d="M758,-220C758,-220 552,-220 552,-220 546,-220 540,-214 540,-208 540,-208 540,-196 540,-196 540,-190 546,-184 552,-184 552,-184 758,-184 758,-184 764,-184 770,-190 770,-196 770,-196 770,-208 770,-208 770,-214 764,-220 758,-220"/>
<text text-anchor="middle" x="655" y="-198.3" font-family="Times,serif" font-size="14.00">ContinuousTrueAlertRate[rule&#45;based]</text>
</g>
<!-- ContinuousTrueAlertRate[rule&#45;based]&#45;&gt;AndRef5 -->
<g id="edge16" class="edge"><title>ContinuousTrueAlertRate[rule&#45;based]&#45;&gt;AndRef5</title>
<path fill="none" stroke="black" d="M655,-220.086C655,-233.929 655,-251.809 655,-256.063"/>
</g>
<!-- 7 -->
<g id="node20" class="node"><title>7</title>
<polygon fill="none" stroke="black" points="1121.33,-522.544 1121.33,-537.456 1078.37,-548 1017.63,-548 974.673,-537.456 974.673,-522.544 1017.63,-512 1078.37,-512 1121.33,-522.544"/>
<text text-anchor="middle" x="1048" y="-526.3" font-family="Times,serif" font-size="14.00">processing type</text>
</g>
<!-- AndRef6&#45;&gt;7 -->
<g id="edge18" class="edge"><title>AndRef6&#45;&gt;7</title>
<path fill="none" stroke="black" d="M1037.16,-459.99C1037.88,-464.586 1040.98,-484.356 1043.69,-501.564"/>
<polygon fill="black" stroke="black" points="1040.29,-502.454 1045.3,-511.789 1047.2,-501.367 1040.29,-502.454"/>
</g>
<!-- TrueAlertRate -->
<g id="node21" class="node"><title>TrueAlertRate</title>
<path fill="none" stroke="black" d="M1084.5,-620C1084.5,-620 1011.5,-620 1011.5,-620 1005.5,-620 999.5,-614 999.5,-608 999.5,-608 999.5,-596 999.5,-596 999.5,-590 1005.5,-584 1011.5,-584 1011.5,-584 1084.5,-584 1084.5,-584 1090.5,-584 1096.5,-590 1096.5,-596 1096.5,-596 1096.5,-608 1096.5,-608 1096.5,-614 1090.5,-620 1084.5,-620"/>
<text text-anchor="middle" x="1048" y="-598.3" font-family="Times,serif" font-size="14.00">TrueAlertRate</text>
</g>
<!-- 7&#45;&gt;TrueAlertRate -->
<g id="edge17" class="edge"><title>7&#45;&gt;TrueAlertRate</title>
<path fill="none" stroke="black" d="M1048,-548.303C1048,-556.017 1048,-565.288 1048,-573.888"/>
<polygon fill="black" stroke="black" points="1044.5,-573.896 1048,-583.896 1051.5,-573.896 1044.5,-573.896"/>
</g>
<!-- TrueAlertRate&#45;&gt;AndRef13 -->
<g id="edge36" class="edge"><title>TrueAlertRate&#45;&gt;AndRef13</title>
<path fill="none" stroke="black" d="M1048,-620.086C1048,-633.929 1048,-651.809 1048,-656.063"/>
</g>
<!-- AndRef7 -->
<g id="node22" class="node"><title>AndRef7</title>
<ellipse fill="black" stroke="black" cx="847" cy="-74" rx="1.8" ry="1.8"/>
</g>
<!-- 8 -->
<g id="node23" class="node"><title>8</title>
<polygon fill="none" stroke="black" points="1025.48,-122.544 1025.48,-137.456 985.365,-148 928.635,-148 888.522,-137.456 888.522,-122.544 928.635,-112 985.365,-112 1025.48,-122.544"/>
<text text-anchor="middle" x="957" y="-126.3" font-family="Times,serif" font-size="14.00">alert threshold</text>
</g>
<!-- AndRef7&#45;&gt;8 -->
<g id="edge21" class="edge"><title>AndRef7&#45;&gt;8</title>
<path fill="none" stroke="black" d="M848.235,-75.6064C854.915,-78.8857 887.442,-94.8532 915.2,-108.48"/>
<polygon fill="black" stroke="black" points="913.868,-111.725 924.387,-112.99 916.953,-105.441 913.868,-111.725"/>
</g>
<!-- BatchAlertThreshold -->
<g id="node24" class="node"><title>BatchAlertThreshold</title>
<path fill="none" stroke="black" d="M1012.5,-220C1012.5,-220 901.5,-220 901.5,-220 895.5,-220 889.5,-214 889.5,-208 889.5,-208 889.5,-196 889.5,-196 889.5,-190 895.5,-184 901.5,-184 901.5,-184 1012.5,-184 1012.5,-184 1018.5,-184 1024.5,-190 1024.5,-196 1024.5,-196 1024.5,-208 1024.5,-208 1024.5,-214 1018.5,-220 1012.5,-220"/>
<text text-anchor="middle" x="957" y="-198.3" font-family="Times,serif" font-size="14.00">BatchAlertThreshold</text>
</g>
<!-- 8&#45;&gt;BatchAlertThreshold -->
<g id="edge20" class="edge"><title>8&#45;&gt;BatchAlertThreshold</title>
<path fill="none" stroke="black" d="M957,-148.303C957,-156.017 957,-165.288 957,-173.888"/>
<polygon fill="black" stroke="black" points="953.5,-173.896 957,-183.896 960.5,-173.896 953.5,-173.896"/>
</g>
<!-- AndRef10 -->
<g id="node30" class="node"><title>AndRef10</title>
<ellipse fill="black" stroke="black" cx="1008" cy="-258" rx="1.8" ry="1.8"/>
</g>
<!-- BatchAlertThreshold&#45;&gt;AndRef10 -->
<g id="edge29" class="edge"><title>BatchAlertThreshold&#45;&gt;AndRef10</title>
<path fill="none" stroke="black" d="M973.137,-220.086C986.21,-233.929 1003.1,-251.809 1007.11,-256.063"/>
</g>
<!-- BatchAlertThreshold[high] -->
<g id="node25" class="node"><title>BatchAlertThreshold[high]</title>
<path fill="none" stroke="black" d="M831.5,-36C831.5,-36 686.5,-36 686.5,-36 680.5,-36 674.5,-30 674.5,-24 674.5,-24 674.5,-12 674.5,-12 674.5,-6 680.5,-0 686.5,-0 686.5,-0 831.5,-0 831.5,-0 837.5,-0 843.5,-6 843.5,-12 843.5,-12 843.5,-24 843.5,-24 843.5,-30 837.5,-36 831.5,-36"/>
<text text-anchor="middle" x="759" y="-14.3" font-family="Times,serif" font-size="14.00">BatchAlertThreshold[high]</text>
</g>
<!-- BatchAlertThreshold[high]&#45;&gt;AndRef7 -->
<g id="edge22" class="edge"><title>BatchAlertThreshold[high]&#45;&gt;AndRef7</title>
<path fill="none" stroke="black" d="M786.844,-36.0859C809.402,-49.9287 838.541,-67.809 845.473,-72.0627"/>
</g>
<!-- AndRef8 -->
<g id="node26" class="node"><title>AndRef8</title>
<ellipse fill="black" stroke="black" cx="957" cy="-74" rx="1.8" ry="1.8"/>
</g>
<!-- AndRef8&#45;&gt;8 -->
<g id="edge23" class="edge"><title>AndRef8&#45;&gt;8</title>
<path fill="none" stroke="black" d="M957,-75.9373C957,-79.197 957,-90.4585 957,-101.773"/>
<polygon fill="black" stroke="black" points="953.5,-101.951 957,-111.951 960.5,-101.951 953.5,-101.951"/>
</g>
<!-- BatchAlertThreshold[medium] -->
<g id="node27" class="node"><title>BatchAlertThreshold[medium]</title>
<path fill="none" stroke="black" d="M1040,-36C1040,-36 874,-36 874,-36 868,-36 862,-30 862,-24 862,-24 862,-12 862,-12 862,-6 868,-0 874,-0 874,-0 1040,-0 1040,-0 1046,-0 1052,-6 1052,-12 1052,-12 1052,-24 1052,-24 1052,-30 1046,-36 1040,-36"/>
<text text-anchor="middle" x="957" y="-14.3" font-family="Times,serif" font-size="14.00">BatchAlertThreshold[medium]</text>
</g>
<!-- BatchAlertThreshold[medium]&#45;&gt;AndRef8 -->
<g id="edge24" class="edge"><title>BatchAlertThreshold[medium]&#45;&gt;AndRef8</title>
<path fill="none" stroke="black" d="M957,-36.0859C957,-49.9287 957,-67.809 957,-72.0627"/>
</g>
<!-- AndRef9 -->
<g id="node28" class="node"><title>AndRef9</title>
<ellipse fill="black" stroke="black" cx="1066" cy="-74" rx="1.8" ry="1.8"/>
</g>
<!-- AndRef9&#45;&gt;8 -->
<g id="edge25" class="edge"><title>AndRef9&#45;&gt;8</title>
<path fill="none" stroke="black" d="M1064.78,-75.6064C1058.16,-78.8857 1025.93,-94.8532 998.42,-108.48"/>
<polygon fill="black" stroke="black" points="996.723,-105.415 989.316,-112.99 999.831,-111.687 996.723,-105.415"/>
</g>
<!-- BatchAlertThreshold[low] -->
<g id="node29" class="node"><title>BatchAlertThreshold[low]</title>
<path fill="none" stroke="black" d="M1223.5,-36C1223.5,-36 1082.5,-36 1082.5,-36 1076.5,-36 1070.5,-30 1070.5,-24 1070.5,-24 1070.5,-12 1070.5,-12 1070.5,-6 1076.5,-0 1082.5,-0 1082.5,-0 1223.5,-0 1223.5,-0 1229.5,-0 1235.5,-6 1235.5,-12 1235.5,-12 1235.5,-24 1235.5,-24 1235.5,-30 1229.5,-36 1223.5,-36"/>
<text text-anchor="middle" x="1153" y="-14.3" font-family="Times,serif" font-size="14.00">BatchAlertThreshold[low]</text>
</g>
<!-- BatchAlertThreshold[low]&#45;&gt;AndRef9 -->
<g id="edge26" class="edge"><title>BatchAlertThreshold[low]&#45;&gt;AndRef9</title>
<path fill="none" stroke="black" d="M1125.47,-36.0859C1103.17,-49.9287 1074.36,-67.809 1067.51,-72.0627"/>
</g>
<!-- 11 -->
<g id="node31" class="node"><title>11</title>
<polygon fill="none" stroke="black" points="1161.92,-306.544 1161.92,-321.456 1101.63,-332 1016.37,-332 956.08,-321.456 956.08,-306.544 1016.37,-296 1101.63,-296 1161.92,-306.544"/>
<text text-anchor="middle" x="1059" y="-310.3" font-family="Times,serif" font-size="14.00">fraud detection method</text>
</g>
<!-- AndRef10&#45;&gt;11 -->
<g id="edge28" class="edge"><title>AndRef10&#45;&gt;11</title>
<path fill="none" stroke="black" d="M1008.89,-259.937C1012.22,-263.463 1024.39,-276.35 1035.9,-288.541"/>
<polygon fill="black" stroke="black" points="1033.49,-291.084 1042.9,-295.951 1038.58,-286.278 1033.49,-291.084"/>
</g>
<!-- BatchTrueAlertRate -->
<g id="node32" class="node"><title>BatchTrueAlertRate</title>
<path fill="none" stroke="black" d="M1112,-404C1112,-404 1006,-404 1006,-404 1000,-404 994,-398 994,-392 994,-392 994,-380 994,-380 994,-374 1000,-368 1006,-368 1006,-368 1112,-368 1112,-368 1118,-368 1124,-374 1124,-380 1124,-380 1124,-392 1124,-392 1124,-398 1118,-404 1112,-404"/>
<text text-anchor="middle" x="1059" y="-382.3" font-family="Times,serif" font-size="14.00">BatchTrueAlertRate</text>
</g>
<!-- 11&#45;&gt;BatchTrueAlertRate -->
<g id="edge27" class="edge"><title>11&#45;&gt;BatchTrueAlertRate</title>
<path fill="none" stroke="black" d="M1059,-332.303C1059,-340.017 1059,-349.288 1059,-357.888"/>
<polygon fill="black" stroke="black" points="1055.5,-357.896 1059,-367.896 1062.5,-357.896 1055.5,-357.896"/>
</g>
<!-- AndRef12 -->
<g id="node35" class="node"><title>AndRef12</title>
<ellipse fill="black" stroke="black" cx="1059" cy="-458" rx="1.8" ry="1.8"/>
</g>
<!-- BatchTrueAlertRate&#45;&gt;AndRef12 -->
<g id="edge33" class="edge"><title>BatchTrueAlertRate&#45;&gt;AndRef12</title>
<path fill="none" stroke="black" d="M1059,-404.303C1059,-423.089 1059,-451.105 1059,-456.193"/>
</g>
<!-- AndRef11 -->
<g id="node33" class="node"><title>AndRef11</title>
<ellipse fill="black" stroke="black" cx="1087" cy="-258" rx="1.8" ry="1.8"/>
</g>
<!-- AndRef11&#45;&gt;11 -->
<g id="edge30" class="edge"><title>AndRef11&#45;&gt;11</title>
<path fill="none" stroke="black" d="M1086.51,-259.937C1084.77,-263.297 1078.62,-275.156 1072.58,-286.812"/>
<polygon fill="black" stroke="black" points="1069.34,-285.462 1067.84,-295.951 1075.55,-288.685 1069.34,-285.462"/>
</g>
<!-- BatchTrueAlertRate[rule&#45;based] -->
<g id="node34" class="node"><title>BatchTrueAlertRate[rule&#45;based]</title>
<path fill="none" stroke="black" d="M1229,-220C1229,-220 1055,-220 1055,-220 1049,-220 1043,-214 1043,-208 1043,-208 1043,-196 1043,-196 1043,-190 1049,-184 1055,-184 1055,-184 1229,-184 1229,-184 1235,-184 1241,-190 1241,-196 1241,-196 1241,-208 1241,-208 1241,-214 1235,-220 1229,-220"/>
<text text-anchor="middle" x="1142" y="-198.3" font-family="Times,serif" font-size="14.00">BatchTrueAlertRate[rule&#45;based]</text>
</g>
<!-- BatchTrueAlertRate[rule&#45;based]&#45;&gt;AndRef11 -->
<g id="edge31" class="edge"><title>BatchTrueAlertRate[rule&#45;based]&#45;&gt;AndRef11</title>
<path fill="none" stroke="black" d="M1124.6,-220.086C1110.5,-233.929 1092.29,-251.809 1087.95,-256.063"/>
</g>
<!-- AndRef12&#45;&gt;7 -->
<g id="edge32" class="edge"><title>AndRef12&#45;&gt;7</title>
<path fill="none" stroke="black" d="M1058.84,-459.99C1058.12,-464.586 1055.02,-484.356 1052.31,-501.564"/>
<polygon fill="black" stroke="black" points="1048.8,-501.367 1050.7,-511.789 1055.71,-502.454 1048.8,-501.367"/>
</g>
<!-- NbrTrueAlerts -->
<g id="node36" class="node"><title>NbrTrueAlerts</title>
<path fill="none" stroke="black" d="M1098.5,-732C1098.5,-732 1023.5,-732 1023.5,-732 1017.5,-732 1011.5,-726 1011.5,-720 1011.5,-720 1011.5,-708 1011.5,-708 1011.5,-702 1017.5,-696 1023.5,-696 1023.5,-696 1098.5,-696 1098.5,-696 1104.5,-696 1110.5,-702 1110.5,-708 1110.5,-708 1110.5,-720 1110.5,-720 1110.5,-726 1104.5,-732 1098.5,-732"/>
<text text-anchor="middle" x="1061" y="-710.3" font-family="Times,serif" font-size="14.00">NbrTrueAlerts</text>
</g>
<!-- AndRef28 -->
<g id="node74" class="node"><title>AndRef28</title>
<ellipse fill="black" stroke="black" cx="1123" cy="-770" rx="1.8" ry="1.8"/>
</g>
<!-- NbrTrueAlerts&#45;&gt;AndRef28 -->
<g id="edge73" class="edge"><title>NbrTrueAlerts&#45;&gt;AndRef28</title>
<path fill="none" stroke="black" d="M1080.62,-732.086C1096.51,-745.929 1117.04,-763.809 1121.92,-768.063"/>
</g>
<!-- AndRef13&#45;&gt;NbrTrueAlerts -->
<g id="edge34" class="edge"><title>AndRef13&#45;&gt;NbrTrueAlerts</title>
<path fill="none" stroke="black" d="M1048.23,-659.937C1049.02,-663.23 1051.78,-674.689 1054.53,-686.12"/>
<polygon fill="black" stroke="black" points="1051.15,-687.048 1056.9,-695.951 1057.96,-685.41 1051.15,-687.048"/>
</g>
<!-- NbrLegitTransactionsPerAccountPerDay -->
<g id="node38" class="node"><title>NbrLegitTransactionsPerAccountPerDay</title>
<path fill="none" stroke="black" d="M1313.5,-476C1313.5,-476 1090.5,-476 1090.5,-476 1084.5,-476 1078.5,-470 1078.5,-464 1078.5,-464 1078.5,-452 1078.5,-452 1078.5,-446 1084.5,-440 1090.5,-440 1090.5,-440 1313.5,-440 1313.5,-440 1319.5,-440 1325.5,-446 1325.5,-452 1325.5,-452 1325.5,-464 1325.5,-464 1325.5,-470 1319.5,-476 1313.5,-476"/>
<text text-anchor="middle" x="1202" y="-454.3" font-family="Times,serif" font-size="14.00">NbrLegitTransactionsPerAccountPerDay</text>
</g>
<!-- NbrLegitTransactionsPerAccountPerDay&#45;&gt;AndRef14 -->
<g id="edge39" class="edge"><title>NbrLegitTransactionsPerAccountPerDay&#45;&gt;AndRef14</title>
<path fill="none" stroke="black" d="M1199.78,-476.303C1197.36,-495.089 1193.76,-523.105 1193.1,-528.193"/>
</g>
<!-- NbrLegitTransactions -->
<g id="node39" class="node"><title>NbrLegitTransactions</title>
<path fill="none" stroke="black" d="M1250.5,-620C1250.5,-620 1135.5,-620 1135.5,-620 1129.5,-620 1123.5,-614 1123.5,-608 1123.5,-608 1123.5,-596 1123.5,-596 1123.5,-590 1129.5,-584 1135.5,-584 1135.5,-584 1250.5,-584 1250.5,-584 1256.5,-584 1262.5,-590 1262.5,-596 1262.5,-596 1262.5,-608 1262.5,-608 1262.5,-614 1256.5,-620 1250.5,-620"/>
<text text-anchor="middle" x="1193" y="-598.3" font-family="Times,serif" font-size="14.00">NbrLegitTransactions</text>
</g>
<!-- AndRef27 -->
<g id="node72" class="node"><title>AndRef27</title>
<ellipse fill="black" stroke="black" cx="1193" cy="-658" rx="1.8" ry="1.8"/>
</g>
<!-- NbrLegitTransactions&#45;&gt;AndRef27 -->
<g id="edge70" class="edge"><title>NbrLegitTransactions&#45;&gt;AndRef27</title>
<path fill="none" stroke="black" d="M1193,-620.086C1193,-633.929 1193,-651.809 1193,-656.063"/>
</g>
<!-- AndRef14&#45;&gt;NbrLegitTransactions -->
<g id="edge37" class="edge"><title>AndRef14&#45;&gt;NbrLegitTransactions</title>
<path fill="none" stroke="black" d="M1193,-531.99C1193,-536.586 1193,-556.356 1193,-573.564"/>
<polygon fill="black" stroke="black" points="1189.5,-573.789 1193,-583.789 1196.5,-573.789 1189.5,-573.789"/>
</g>
<!-- AndRef15 -->
<g id="node41" class="node"><title>AndRef15</title>
<ellipse fill="black" stroke="black" cx="1520" cy="-74" rx="1.8" ry="1.8"/>
</g>
<!-- 16 -->
<g id="node42" class="node"><title>16</title>
<polygon fill="none" stroke="black" points="1745.48,-122.544 1745.48,-137.456 1705.36,-148 1648.64,-148 1608.52,-137.456 1608.52,-122.544 1648.64,-112 1705.36,-112 1745.48,-122.544"/>
<text text-anchor="middle" x="1677" y="-126.3" font-family="Times,serif" font-size="14.00">alert threshold</text>
</g>
<!-- AndRef15&#45;&gt;16 -->
<g id="edge41" class="edge"><title>AndRef15&#45;&gt;16</title>
<path fill="none" stroke="black" d="M1521.36,-75.4668C1530.59,-78.6419 1585.04,-97.3703 1626.96,-111.79"/>
<polygon fill="black" stroke="black" points="1625.91,-115.129 1636.5,-115.072 1628.19,-108.509 1625.91,-115.129"/>
</g>
<!-- ContinuousClassierTrueNegativeRate -->
<g id="node43" class="node"><title>ContinuousClassierTrueNegativeRate</title>
<path fill="none" stroke="black" d="M1779.5,-220C1779.5,-220 1574.5,-220 1574.5,-220 1568.5,-220 1562.5,-214 1562.5,-208 1562.5,-208 1562.5,-196 1562.5,-196 1562.5,-190 1568.5,-184 1574.5,-184 1574.5,-184 1779.5,-184 1779.5,-184 1785.5,-184 1791.5,-190 1791.5,-196 1791.5,-196 1791.5,-208 1791.5,-208 1791.5,-214 1785.5,-220 1779.5,-220"/>
<text text-anchor="middle" x="1677" y="-198.3" font-family="Times,serif" font-size="14.00">ContinuousClassierTrueNegativeRate</text>
</g>
<!-- 16&#45;&gt;ContinuousClassierTrueNegativeRate -->
<g id="edge40" class="edge"><title>16&#45;&gt;ContinuousClassierTrueNegativeRate</title>
<path fill="none" stroke="black" d="M1677,-148.303C1677,-156.017 1677,-165.288 1677,-173.888"/>
<polygon fill="black" stroke="black" points="1673.5,-173.896 1677,-183.896 1680.5,-173.896 1673.5,-173.896"/>
</g>
<!-- AndRef18 -->
<g id="node49" class="node"><title>AndRef18</title>
<ellipse fill="black" stroke="black" cx="1712" cy="-258" rx="1.8" ry="1.8"/>
</g>
<!-- ContinuousClassierTrueNegativeRate&#45;&gt;AndRef18 -->
<g id="edge49" class="edge"><title>ContinuousClassierTrueNegativeRate&#45;&gt;AndRef18</title>
<path fill="none" stroke="black" d="M1688.07,-220.086C1697.05,-233.929 1708.64,-251.809 1711.39,-256.063"/>
</g>
<!-- ContinuousClassierTrueNegativeRate[high] -->
<g id="node44" class="node"><title>ContinuousClassierTrueNegativeRate[high]</title>
<path fill="none" stroke="black" d="M1504.5,-36C1504.5,-36 1265.5,-36 1265.5,-36 1259.5,-36 1253.5,-30 1253.5,-24 1253.5,-24 1253.5,-12 1253.5,-12 1253.5,-6 1259.5,-0 1265.5,-0 1265.5,-0 1504.5,-0 1504.5,-0 1510.5,-0 1516.5,-6 1516.5,-12 1516.5,-12 1516.5,-24 1516.5,-24 1516.5,-30 1510.5,-36 1504.5,-36"/>
<text text-anchor="middle" x="1385" y="-14.3" font-family="Times,serif" font-size="14.00">ContinuousClassierTrueNegativeRate[high]</text>
</g>
<!-- ContinuousClassierTrueNegativeRate[high]&#45;&gt;AndRef15 -->
<g id="edge42" class="edge"><title>ContinuousClassierTrueNegativeRate[high]&#45;&gt;AndRef15</title>
<path fill="none" stroke="black" d="M1427.71,-36.0859C1463.56,-50.4231 1510.23,-69.0913 1518.66,-72.4655"/>
</g>
<!-- AndRef16 -->
<g id="node45" class="node"><title>AndRef16</title>
<ellipse fill="black" stroke="black" cx="1677" cy="-74" rx="1.8" ry="1.8"/>
</g>
<!-- AndRef16&#45;&gt;16 -->
<g id="edge43" class="edge"><title>AndRef16&#45;&gt;16</title>
<path fill="none" stroke="black" d="M1677,-75.9373C1677,-79.197 1677,-90.4585 1677,-101.773"/>
<polygon fill="black" stroke="black" points="1673.5,-101.951 1677,-111.951 1680.5,-101.951 1673.5,-101.951"/>
</g>
<!-- ContinuousClassierTrueNegativeRate[medium] -->
<g id="node46" class="node"><title>ContinuousClassierTrueNegativeRate[medium]</title>
<path fill="none" stroke="black" d="M1807,-36C1807,-36 1547,-36 1547,-36 1541,-36 1535,-30 1535,-24 1535,-24 1535,-12 1535,-12 1535,-6 1541,-0 1547,-0 1547,-0 1807,-0 1807,-0 1813,-0 1819,-6 1819,-12 1819,-12 1819,-24 1819,-24 1819,-30 1813,-36 1807,-36"/>
<text text-anchor="middle" x="1677" y="-14.3" font-family="Times,serif" font-size="14.00">ContinuousClassierTrueNegativeRate[medium]</text>
</g>
<!-- ContinuousClassierTrueNegativeRate[medium]&#45;&gt;AndRef16 -->
<g id="edge44" class="edge"><title>ContinuousClassierTrueNegativeRate[medium]&#45;&gt;AndRef16</title>
<path fill="none" stroke="black" d="M1677,-36.0859C1677,-49.9287 1677,-67.809 1677,-72.0627"/>
</g>
<!-- AndRef17 -->
<g id="node47" class="node"><title>AndRef17</title>
<ellipse fill="black" stroke="black" cx="1833" cy="-74" rx="1.8" ry="1.8"/>
</g>
<!-- AndRef17&#45;&gt;16 -->
<g id="edge45" class="edge"><title>AndRef17&#45;&gt;16</title>
<path fill="none" stroke="black" d="M1831.65,-75.4668C1822.48,-78.6419 1768.37,-97.3703 1726.72,-111.79"/>
<polygon fill="black" stroke="black" points="1725.54,-108.493 1717.24,-115.072 1727.83,-115.108 1725.54,-108.493"/>
</g>
<!-- ContinuousClassierTrueNegativeRate[low] -->
<g id="node48" class="node"><title>ContinuousClassierTrueNegativeRate[low]</title>
<path fill="none" stroke="black" d="M2084.5,-36C2084.5,-36 1849.5,-36 1849.5,-36 1843.5,-36 1837.5,-30 1837.5,-24 1837.5,-24 1837.5,-12 1837.5,-12 1837.5,-6 1843.5,-0 1849.5,-0 1849.5,-0 2084.5,-0 2084.5,-0 2090.5,-0 2096.5,-6 2096.5,-12 2096.5,-12 2096.5,-24 2096.5,-24 2096.5,-30 2090.5,-36 2084.5,-36"/>
<text text-anchor="middle" x="1967" y="-14.3" font-family="Times,serif" font-size="14.00">ContinuousClassierTrueNegativeRate[low]</text>
</g>
<!-- ContinuousClassierTrueNegativeRate[low]&#45;&gt;AndRef17 -->
<g id="edge46" class="edge"><title>ContinuousClassierTrueNegativeRate[low]&#45;&gt;AndRef17</title>
<path fill="none" stroke="black" d="M1924.6,-36.0859C1889.02,-50.4231 1842.7,-69.0913 1834.33,-72.4655"/>
</g>
<!-- 19 -->
<g id="node50" class="node"><title>19</title>
<polygon fill="none" stroke="black" points="1849.92,-306.544 1849.92,-321.456 1789.63,-332 1704.37,-332 1644.08,-321.456 1644.08,-306.544 1704.37,-296 1789.63,-296 1849.92,-306.544"/>
<text text-anchor="middle" x="1747" y="-310.3" font-family="Times,serif" font-size="14.00">fraud detection method</text>
</g>
<!-- AndRef18&#45;&gt;19 -->
<g id="edge48" class="edge"><title>AndRef18&#45;&gt;19</title>
<path fill="none" stroke="black" d="M1712.61,-259.937C1714.83,-263.363 1722.78,-275.629 1730.48,-287.504"/>
<polygon fill="black" stroke="black" points="1727.57,-289.463 1735.95,-295.951 1733.45,-285.656 1727.57,-289.463"/>
</g>
<!-- ContinuousTrueNegativeRate -->
<g id="node51" class="node"><title>ContinuousTrueNegativeRate</title>
<path fill="none" stroke="black" d="M1827,-404C1827,-404 1667,-404 1667,-404 1661,-404 1655,-398 1655,-392 1655,-392 1655,-380 1655,-380 1655,-374 1661,-368 1667,-368 1667,-368 1827,-368 1827,-368 1833,-368 1839,-374 1839,-380 1839,-380 1839,-392 1839,-392 1839,-398 1833,-404 1827,-404"/>
<text text-anchor="middle" x="1747" y="-382.3" font-family="Times,serif" font-size="14.00">ContinuousTrueNegativeRate</text>
</g>
<!-- 19&#45;&gt;ContinuousTrueNegativeRate -->
<g id="edge47" class="edge"><title>19&#45;&gt;ContinuousTrueNegativeRate</title>
<path fill="none" stroke="black" d="M1747,-332.303C1747,-340.017 1747,-349.288 1747,-357.888"/>
<polygon fill="black" stroke="black" points="1743.5,-357.896 1747,-367.896 1750.5,-357.896 1743.5,-357.896"/>
</g>
<!-- AndRef20 -->
<g id="node54" class="node"><title>AndRef20</title>
<ellipse fill="black" stroke="black" cx="1747" cy="-458" rx="1.8" ry="1.8"/>
</g>
<!-- ContinuousTrueNegativeRate&#45;&gt;AndRef20 -->
<g id="edge54" class="edge"><title>ContinuousTrueNegativeRate&#45;&gt;AndRef20</title>
<path fill="none" stroke="black" d="M1747,-404.303C1747,-423.089 1747,-451.105 1747,-456.193"/>
</g>
<!-- AndRef19 -->
<g id="node52" class="node"><title>AndRef19</title>
<ellipse fill="black" stroke="black" cx="1817" cy="-258" rx="1.8" ry="1.8"/>
</g>
<!-- AndRef19&#45;&gt;19 -->
<g id="edge50" class="edge"><title>AndRef19&#45;&gt;19</title>
<path fill="none" stroke="black" d="M1816.01,-259.763C1811.64,-263.134 1793.55,-277.086 1777,-289.861"/>
<polygon fill="black" stroke="black" points="1774.84,-287.107 1769.06,-295.986 1779.11,-292.649 1774.84,-287.107"/>
</g>
<!-- ContinuousTrueNegativeRate[rule&#45;based] -->
<g id="node53" class="node"><title>ContinuousTrueNegativeRate[rule&#45;based]</title>
<path fill="none" stroke="black" d="M2048.5,-220C2048.5,-220 1821.5,-220 1821.5,-220 1815.5,-220 1809.5,-214 1809.5,-208 1809.5,-208 1809.5,-196 1809.5,-196 1809.5,-190 1815.5,-184 1821.5,-184 1821.5,-184 2048.5,-184 2048.5,-184 2054.5,-184 2060.5,-190 2060.5,-196 2060.5,-196 2060.5,-208 2060.5,-208 2060.5,-214 2054.5,-220 2048.5,-220"/>
<text text-anchor="middle" x="1935" y="-198.3" font-family="Times,serif" font-size="14.00">ContinuousTrueNegativeRate[rule&#45;based]</text>
</g>
<!-- ContinuousTrueNegativeRate[rule&#45;based]&#45;&gt;AndRef19 -->
<g id="edge51" class="edge"><title>ContinuousTrueNegativeRate[rule&#45;based]&#45;&gt;AndRef19</title>
<path fill="none" stroke="black" d="M1897.66,-220.086C1866.33,-234.423 1825.54,-253.091 1818.17,-256.466"/>
</g>
<!-- 21 -->
<g id="node55" class="node"><title>21</title>
<polygon fill="none" stroke="black" points="1820.33,-522.544 1820.33,-537.456 1777.37,-548 1716.63,-548 1673.67,-537.456 1673.67,-522.544 1716.63,-512 1777.37,-512 1820.33,-522.544"/>
<text text-anchor="middle" x="1747" y="-526.3" font-family="Times,serif" font-size="14.00">processing type</text>
</g>
<!-- AndRef20&#45;&gt;21 -->
<g id="edge53" class="edge"><title>AndRef20&#45;&gt;21</title>
<path fill="none" stroke="black" d="M1747,-459.99C1747,-464.586 1747,-484.356 1747,-501.564"/>
<polygon fill="black" stroke="black" points="1743.5,-501.789 1747,-511.789 1750.5,-501.789 1743.5,-501.789"/>
</g>
<!-- TrueNegativeRate -->
<g id="node56" class="node"><title>TrueNegativeRate</title>
<path fill="none" stroke="black" d="M1643.5,-620C1643.5,-620 1548.5,-620 1548.5,-620 1542.5,-620 1536.5,-614 1536.5,-608 1536.5,-608 1536.5,-596 1536.5,-596 1536.5,-590 1542.5,-584 1548.5,-584 1548.5,-584 1643.5,-584 1643.5,-584 1649.5,-584 1655.5,-590 1655.5,-596 1655.5,-596 1655.5,-608 1655.5,-608 1655.5,-614 1649.5,-620 1643.5,-620"/>
<text text-anchor="middle" x="1596" y="-598.3" font-family="Times,serif" font-size="14.00">TrueNegativeRate</text>
</g>
<!-- 21&#45;&gt;TrueNegativeRate -->
<g id="edge52" class="edge"><title>21&#45;&gt;TrueNegativeRate</title>
<path fill="none" stroke="black" d="M1712.36,-547.059C1691.47,-556.744 1664.6,-569.198 1641.95,-579.699"/>
<polygon fill="black" stroke="black" points="1640.45,-576.534 1632.85,-583.916 1643.4,-582.885 1640.45,-576.534"/>
</g>
<!-- TrueNegativeRate&#45;&gt;AndRef27 -->
<g id="edge71" class="edge"><title>TrueNegativeRate&#45;&gt;AndRef27</title>
<path fill="none" stroke="black" d="M1536.54,-610.968C1429.69,-625.285 1214.43,-654.128 1194.49,-656.8"/>
</g>
<!-- AndRef21 -->
<g id="node57" class="node"><title>AndRef21</title>
<ellipse fill="black" stroke="black" cx="2295" cy="-74" rx="1.8" ry="1.8"/>
</g>
<!-- 22 -->
<g id="node58" class="node"><title>22</title>
<polygon fill="none" stroke="black" points="2436.48,-122.544 2436.48,-137.456 2396.36,-148 2339.64,-148 2299.52,-137.456 2299.52,-122.544 2339.64,-112 2396.36,-112 2436.48,-122.544"/>
<text text-anchor="middle" x="2368" y="-126.3" font-family="Times,serif" font-size="14.00">alert threshold</text>
</g>
<!-- AndRef21&#45;&gt;22 -->
<g id="edge56" class="edge"><title>AndRef21&#45;&gt;22</title>
<path fill="none" stroke="black" d="M2295.82,-75.6064C2299.94,-78.6535 2318.87,-92.6556 2336.31,-105.556"/>
<polygon fill="black" stroke="black" points="2334.56,-108.614 2344.68,-111.747 2338.72,-102.986 2334.56,-108.614"/>
</g>
<!-- BatchClassifierTrueNegativeRate -->
<g id="node59" class="node"><title>BatchClassifierTrueNegativeRate</title>
<path fill="none" stroke="black" d="M2308.5,-220C2308.5,-220 2127.5,-220 2127.5,-220 2121.5,-220 2115.5,-214 2115.5,-208 2115.5,-208 2115.5,-196 2115.5,-196 2115.5,-190 2121.5,-184 2127.5,-184 2127.5,-184 2308.5,-184 2308.5,-184 2314.5,-184 2320.5,-190 2320.5,-196 2320.5,-196 2320.5,-208 2320.5,-208 2320.5,-214 2314.5,-220 2308.5,-220"/>
<text text-anchor="middle" x="2218" y="-198.3" font-family="Times,serif" font-size="14.00">BatchClassifierTrueNegativeRate</text>
</g>
<!-- 22&#45;&gt;BatchClassifierTrueNegativeRate -->
<g id="edge55" class="edge"><title>22&#45;&gt;BatchClassifierTrueNegativeRate</title>
<path fill="none" stroke="black" d="M2334.34,-146.709C2313.46,-156.452 2286.37,-169.095 2263.58,-179.729"/>
<polygon fill="black" stroke="black" points="2262.02,-176.596 2254.44,-183.997 2264.98,-182.939 2262.02,-176.596"/>
</g>
<!-- AndRef24 -->
<g id="node65" class="node"><title>AndRef24</title>
<ellipse fill="black" stroke="black" cx="2218" cy="-258" rx="1.8" ry="1.8"/>
</g>
<!-- BatchClassifierTrueNegativeRate&#45;&gt;AndRef24 -->
<g id="edge64" class="edge"><title>BatchClassifierTrueNegativeRate&#45;&gt;AndRef24</title>
<path fill="none" stroke="black" d="M2218,-220.086C2218,-233.929 2218,-251.809 2218,-256.063"/>
</g>
<!-- BatchClassifierTrueNegativeRate[high] -->
<g id="node60" class="node"><title>BatchClassifierTrueNegativeRate[high]</title>
<path fill="none" stroke="black" d="M2341.5,-36C2341.5,-36 2126.5,-36 2126.5,-36 2120.5,-36 2114.5,-30 2114.5,-24 2114.5,-24 2114.5,-12 2114.5,-12 2114.5,-6 2120.5,-0 2126.5,-0 2126.5,-0 2341.5,-0 2341.5,-0 2347.5,-0 2353.5,-6 2353.5,-12 2353.5,-12 2353.5,-24 2353.5,-24 2353.5,-30 2347.5,-36 2341.5,-36"/>
<text text-anchor="middle" x="2234" y="-14.3" font-family="Times,serif" font-size="14.00">BatchClassifierTrueNegativeRate[high]</text>
</g>
<!-- BatchClassifierTrueNegativeRate[high]&#45;&gt;AndRef21 -->
<g id="edge57" class="edge"><title>BatchClassifierTrueNegativeRate[high]&#45;&gt;AndRef21</title>
<path fill="none" stroke="black" d="M2253.3,-36.0859C2268.94,-49.9287 2289.14,-67.809 2293.94,-72.0627"/>
</g>
<!-- AndRef22 -->
<g id="node61" class="node"><title>AndRef22</title>
<ellipse fill="black" stroke="black" cx="2440" cy="-74" rx="1.8" ry="1.8"/>
</g>
<!-- AndRef22&#45;&gt;22 -->
<g id="edge58" class="edge"><title>AndRef22&#45;&gt;22</title>
<path fill="none" stroke="black" d="M2438.98,-75.7634C2434.49,-79.1344 2415.88,-93.0863 2398.85,-105.861"/>
<polygon fill="black" stroke="black" points="2396.59,-103.186 2390.69,-111.986 2400.79,-108.786 2396.59,-103.186"/>
</g>
<!-- BatchClassifierTrueNegativeRate[medium] -->
<g id="node62" class="node"><title>BatchClassifierTrueNegativeRate[medium]</title>
<path fill="none" stroke="black" d="M2620,-36C2620,-36 2384,-36 2384,-36 2378,-36 2372,-30 2372,-24 2372,-24 2372,-12 2372,-12 2372,-6 2378,-0 2384,-0 2384,-0 2620,-0 2620,-0 2626,-0 2632,-6 2632,-12 2632,-12 2632,-24 2632,-24 2632,-30 2626,-36 2620,-36"/>
<text text-anchor="middle" x="2502" y="-14.3" font-family="Times,serif" font-size="14.00">BatchClassifierTrueNegativeRate[medium]</text>
</g>
<!-- BatchClassifierTrueNegativeRate[medium]&#45;&gt;AndRef22 -->
<g id="edge59" class="edge"><title>BatchClassifierTrueNegativeRate[medium]&#45;&gt;AndRef22</title>
<path fill="none" stroke="black" d="M2482.38,-36.0859C2466.49,-49.9287 2445.96,-67.809 2441.08,-72.0627"/>
</g>
<!-- AndRef23 -->
<g id="node63" class="node"><title>AndRef23</title>
<ellipse fill="black" stroke="black" cx="2645" cy="-74" rx="1.8" ry="1.8"/>
</g>
<!-- AndRef23&#45;&gt;22 -->
<g id="edge60" class="edge"><title>AndRef23&#45;&gt;22</title>
<path fill="none" stroke="black" d="M2643.51,-75.2905C2628.78,-78.1626 2508.16,-101.677 2431.48,-116.625"/>
<polygon fill="black" stroke="black" points="2430.58,-113.235 2421.43,-118.584 2431.92,-120.106 2430.58,-113.235"/>
</g>
<!-- BatchClassifierTrueNegativeRate[low] -->
<g id="node64" class="node"><title>BatchClassifierTrueNegativeRate[low]</title>
<path fill="none" stroke="black" d="M2873.5,-36C2873.5,-36 2662.5,-36 2662.5,-36 2656.5,-36 2650.5,-30 2650.5,-24 2650.5,-24 2650.5,-12 2650.5,-12 2650.5,-6 2656.5,-0 2662.5,-0 2662.5,-0 2873.5,-0 2873.5,-0 2879.5,-0 2885.5,-6 2885.5,-12 2885.5,-12 2885.5,-24 2885.5,-24 2885.5,-30 2879.5,-36 2873.5,-36"/>
<text text-anchor="middle" x="2768" y="-14.3" font-family="Times,serif" font-size="14.00">BatchClassifierTrueNegativeRate[low]</text>
</g>
<!-- BatchClassifierTrueNegativeRate[low]&#45;&gt;AndRef23 -->
<g id="edge61" class="edge"><title>BatchClassifierTrueNegativeRate[low]&#45;&gt;AndRef23</title>
<path fill="none" stroke="black" d="M2729.08,-36.0859C2696.43,-50.4231 2653.9,-69.0913 2646.22,-72.4655"/>
</g>
<!-- 25 -->
<g id="node66" class="node"><title>25</title>
<polygon fill="none" stroke="black" points="2320.92,-306.544 2320.92,-321.456 2260.63,-332 2175.37,-332 2115.08,-321.456 2115.08,-306.544 2175.37,-296 2260.63,-296 2320.92,-306.544"/>
<text text-anchor="middle" x="2218" y="-310.3" font-family="Times,serif" font-size="14.00">fraud detection method</text>
</g>
<!-- AndRef24&#45;&gt;25 -->
<g id="edge63" class="edge"><title>AndRef24&#45;&gt;25</title>
<path fill="none" stroke="black" d="M2218,-259.937C2218,-263.197 2218,-274.459 2218,-285.773"/>
<polygon fill="black" stroke="black" points="2214.5,-285.951 2218,-295.951 2221.5,-285.951 2214.5,-285.951"/>
</g>
<!-- BatchTrueNegativeRate -->
<g id="node67" class="node"><title>BatchTrueNegativeRate</title>
<path fill="none" stroke="black" d="M2086,-404C2086,-404 1958,-404 1958,-404 1952,-404 1946,-398 1946,-392 1946,-392 1946,-380 1946,-380 1946,-374 1952,-368 1958,-368 1958,-368 2086,-368 2086,-368 2092,-368 2098,-374 2098,-380 2098,-380 2098,-392 2098,-392 2098,-398 2092,-404 2086,-404"/>
<text text-anchor="middle" x="2022" y="-382.3" font-family="Times,serif" font-size="14.00">BatchTrueNegativeRate</text>
</g>
<!-- 25&#45;&gt;BatchTrueNegativeRate -->
<g id="edge62" class="edge"><title>25&#45;&gt;BatchTrueNegativeRate</title>
<path fill="none" stroke="black" d="M2172.05,-331.412C2144.4,-341.287 2108.96,-353.943 2079.47,-364.476"/>
<polygon fill="black" stroke="black" points="2077.95,-361.3 2069.71,-367.96 2080.31,-367.893 2077.95,-361.3"/>
</g>
<!-- AndRef26 -->
<g id="node70" class="node"><title>AndRef26</title>
<ellipse fill="black" stroke="black" cx="1851" cy="-458" rx="1.8" ry="1.8"/>
</g>
<!-- BatchTrueNegativeRate&#45;&gt;AndRef26 -->
<g id="edge68" class="edge"><title>BatchTrueNegativeRate&#45;&gt;AndRef26</title>
<path fill="none" stroke="black" d="M1980.17,-404.124C1933.1,-423.39 1861.91,-452.535 1852.13,-456.538"/>
</g>
<!-- AndRef25 -->
<g id="node68" class="node"><title>AndRef25</title>
<ellipse fill="black" stroke="black" cx="2344" cy="-258" rx="1.8" ry="1.8"/>
</g>
<!-- AndRef25&#45;&gt;25 -->
<g id="edge65" class="edge"><title>AndRef25&#45;&gt;25</title>
<path fill="none" stroke="black" d="M2342.58,-259.606C2335.06,-262.83 2298.93,-278.316 2267.5,-291.786"/>
<polygon fill="black" stroke="black" points="2265.74,-288.73 2257.93,-295.886 2268.5,-295.164 2265.74,-288.73"/>
</g>
<!-- BatchTrueNegativeRate[rule&#45;based] -->
<g id="node69" class="node"><title>BatchTrueNegativeRate[rule&#45;based]</title>
<path fill="none" stroke="black" d="M2545.5,-220C2545.5,-220 2350.5,-220 2350.5,-220 2344.5,-220 2338.5,-214 2338.5,-208 2338.5,-208 2338.5,-196 2338.5,-196 2338.5,-190 2344.5,-184 2350.5,-184 2350.5,-184 2545.5,-184 2545.5,-184 2551.5,-184 2557.5,-190 2557.5,-196 2557.5,-196 2557.5,-208 2557.5,-208 2557.5,-214 2551.5,-220 2545.5,-220"/>
<text text-anchor="middle" x="2448" y="-198.3" font-family="Times,serif" font-size="14.00">BatchTrueNegativeRate[rule&#45;based]</text>
</g>
<!-- BatchTrueNegativeRate[rule&#45;based]&#45;&gt;AndRef25 -->
<g id="edge66" class="edge"><title>BatchTrueNegativeRate[rule&#45;based]&#45;&gt;AndRef25</title>
<path fill="none" stroke="black" d="M2415.09,-220.086C2387.48,-234.423 2351.53,-253.091 2345.03,-256.466"/>
</g>
<!-- AndRef26&#45;&gt;21 -->
<g id="edge67" class="edge"><title>AndRef26&#45;&gt;21</title>
<path fill="none" stroke="black" d="M1849.83,-459.786C1843.07,-464.34 1808.25,-487.771 1780.98,-506.126"/>
<polygon fill="black" stroke="black" points="1778.78,-503.389 1772.44,-511.876 1782.69,-509.196 1778.78,-503.389"/>
</g>
<!-- NbrFalseAlerts -->
<g id="node71" class="node"><title>NbrFalseAlerts</title>
<path fill="none" stroke="black" d="M1225,-732C1225,-732 1147,-732 1147,-732 1141,-732 1135,-726 1135,-720 1135,-720 1135,-708 1135,-708 1135,-702 1141,-696 1147,-696 1147,-696 1225,-696 1225,-696 1231,-696 1237,-702 1237,-708 1237,-708 1237,-720 1237,-720 1237,-726 1231,-732 1225,-732"/>
<text text-anchor="middle" x="1186" y="-710.3" font-family="Times,serif" font-size="14.00">NbrFalseAlerts</text>
</g>
<!-- NbrFalseAlerts&#45;&gt;AndRef28 -->
<g id="edge74" class="edge"><title>NbrFalseAlerts&#45;&gt;AndRef28</title>
<path fill="none" stroke="black" d="M1166.07,-732.086C1149.92,-745.929 1129.06,-763.809 1124.09,-768.063"/>
</g>
<!-- AndRef27&#45;&gt;NbrFalseAlerts -->
<g id="edge69" class="edge"><title>AndRef27&#45;&gt;NbrFalseAlerts</title>
<path fill="none" stroke="black" d="M1192.88,-659.937C1192.46,-663.197 1191,-674.459 1189.53,-685.773"/>
<polygon fill="black" stroke="black" points="1186.02,-685.584 1188.21,-695.951 1192.97,-686.484 1186.02,-685.584"/>
</g>
<!-- NbrAlerts -->
<g id="node73" class="node"><title>NbrAlerts</title>
<path fill="none" stroke="black" d="M1147,-844C1147,-844 1099,-844 1099,-844 1093,-844 1087,-838 1087,-832 1087,-832 1087,-820 1087,-820 1087,-814 1093,-808 1099,-808 1099,-808 1147,-808 1147,-808 1153,-808 1159,-814 1159,-820 1159,-820 1159,-832 1159,-832 1159,-838 1153,-844 1147,-844"/>
<text text-anchor="middle" x="1123" y="-822.3" font-family="Times,serif" font-size="14.00">NbrAlerts</text>
</g>
<!-- AndRef28&#45;&gt;NbrAlerts -->
<g id="edge72" class="edge"><title>AndRef28&#45;&gt;NbrAlerts</title>
<path fill="none" stroke="black" d="M1123,-771.937C1123,-775.197 1123,-786.459 1123,-797.773"/>
<polygon fill="black" stroke="black" points="1119.5,-797.951 1123,-807.951 1126.5,-797.951 1119.5,-797.951"/>
</g>
</g>
</svg>
