<?xml version="1.0" encoding="UTF-8" standalone="no"?>
<svg
   xmlns:dc="http://purl.org/dc/elements/1.1/"
   xmlns:cc="http://creativecommons.org/ns#"
   xmlns:rdf="http://www.w3.org/1999/02/22-rdf-syntax-ns#"
   xmlns:svg="http://www.w3.org/2000/svg"
   xmlns="http://www.w3.org/2000/svg"
   xmlns:sodipodi="http://sodipodi.sourceforge.net/DTD/sodipodi-0.dtd"
   xmlns:inkscape="http://www.inkscape.org/namespaces/inkscape"
   version="1.1"
   id="svg2"
   viewBox="0 0 348.73936 113.01022"
   height="31.893999mm"
   width="98.421997mm"
   inkscape:version="0.91 r13725"
   sodipodi:docname="Logo_4.svg">
  <sodipodi:namedview
     pagecolor="#ffffff"
     bordercolor="#666666"
     borderopacity="1"
     objecttolerance="10"
     gridtolerance="10"
     guidetolerance="10"
     inkscape:pageopacity="0"
     inkscape:pageshadow="2"
     inkscape:window-width="1366"
     inkscape:window-height="719"
     id="namedview194"
     showgrid="false"
     inkscape:zoom="1.6341875"
     inkscape:cx="119.45229"
     inkscape:cy="43.199293"
     inkscape:window-x="0"
     inkscape:window-y="1"
     inkscape:window-maximized="1"
     inkscape:current-layer="g4656" />
  <defs
     id="defs4" />
  <metadata
     id="metadata7">
    <rdf:RDF>
      <cc:Work
         rdf:about="">
        <dc:format>image/svg+xml</dc:format>
        <dc:type
           rdf:resource="http://purl.org/dc/dcmitype/StillImage" />
        <dc:title />
      </cc:Work>
    </rdf:RDF>
  </metadata>
  <g
     transform="translate(0,-939.35195)"
     id="layer1">
    <g
       id="g4656"
       transform="matrix(1.25,0,0,-1.25,0.36258571,2524.7462)">
      <text
         y="-1021.2997"
         x="159.93123"
         transform="scale(1,-1)"
         style="font-variant:normal;font-weight:normal;font-stretch:normal;font-size:36px;font-family:Karla;-inkscape-font-specification:Montserrat-Regular;writing-mode:lr-tb;fill:#ffffff;fill-opacity:1;fill-rule:nonzero;stroke:none"
         id="text4670">
        <tspan
           x="159.93123 186.77643 213.63603 241.68004 270.11642"
           y="-1021.2997"
           id="tspan4672">PEACH</tspan>
      </text>
      <path
         d="m 102.10723,1021.3004 -15.999995,0 0,18 15.999995,0 0,-18 z"
         style="fill:#ffffff;fill-opacity:1;fill-rule:nonzero;stroke:none"
         id="path4674" />
      <path
         d="m 122.35723,1021.3004 -16,0 0,39.43 16,0 0,-39.43 z"
         style="fill:#ffffff;fill-opacity:1;fill-rule:nonzero;stroke:none"
         id="path4676" />
      <path
         d="m 142.60723,1021.3004 -16,0 0,24.93 16,0 0,-24.93 z"
         style="fill:#ffffff;fill-opacity:1;fill-rule:nonzero;stroke:none"
         id="path4678" />
      <text
         y="-1207.8947"
         x="105.68882"
         transform="scale(1,-1)"
         style="font-variant:normal;font-weight:normal;font-stretch:normal;font-size:36px;font-family:Karla;-inkscape-font-specification:Montserrat-Regular;writing-mode:lr-tb;fill:#ffffff;fill-opacity:1;fill-rule:nonzero;stroke:none"
         id="text4778">
        <tspan
           x="105.68882 132.53401 159.39362 187.43762 215.87402"
           y="-1207.8947"
           id="tspan4780">PEACH</tspan>
      </text>
      <path
         d="m 47.86482,1207.8943 -16,0 0,18 16,0 0,-18 z"
         style="fill:#ffffff;fill-opacity:1;fill-rule:nonzero;stroke:none"
         id="path4782" />
      <path
         d="m 68.11482,1207.8943 -16,0 0,39.43 16,0 0,-39.43 z"
         style="fill:#ffffff;fill-opacity:1;fill-rule:nonzero;stroke:none"
         id="path4784" />
      <path
         d="m 88.36482,1207.8943 -16,0 0,24.93 16,0 0,-24.93 z"
         style="fill:#ffffff;fill-opacity:1;fill-rule:nonzero;stroke:none"
         id="path4786" />
      <path
         d="m 278.70377,1177.9073 -278.98600454,0 0,90.405 278.98600454,0 0,-90.405 z"
         style="fill:#14304e;fill-opacity:1;fill-rule:nonzero;stroke:none"
         id="path4860" />
      <text
         y="-1207.8945"
         x="105.69276"
         transform="scale(1,-1)"
         style="font-variant:normal;font-weight:normal;font-stretch:normal;font-size:36px;font-family:Karla;-inkscape-font-specification:Montserrat-Regular;writing-mode:lr-tb;fill:#ffffff;fill-opacity:1;fill-rule:nonzero;stroke:none;"
         id="text4862">
        <tspan
           x="105.69276 132.53796 159.39757 187.44157 215.87798"
           y="-1207.8945"
           id="tspan4864"
           style="fill:#ffffff;">PEACH</tspan>
      </text>
      <path
         d="m 47.868765,1207.8953 -16,0 0,18 16,0 0,-18 z"
         style="fill:#ffffff;fill-opacity:1;fill-rule:nonzero;stroke:none"
         id="path4866" />
      <path
         d="m 68.118765,1207.8953 -16,0 0,39.43 16,0 0,-39.43 z"
         style="fill:#ffffff;fill-opacity:1;fill-rule:nonzero;stroke:none"
         id="path4868" />
      <path
         d="m 88.368765,1207.8953 -16,0 0,24.93 16,0 0,-24.93 z"
         style="fill:#ffffff;fill-opacity:1;fill-rule:nonzero;stroke:none"
         id="path4870" />
    </g>
  </g>
</svg>
