<?xml version="1.0" encoding="UTF-8" standalone="no"?>
<svg
   xmlns:dc="http://purl.org/dc/elements/1.1/"
   xmlns:cc="http://creativecommons.org/ns#"
   xmlns:rdf="http://www.w3.org/1999/02/22-rdf-syntax-ns#"
   xmlns:svg="http://www.w3.org/2000/svg"
   xmlns="http://www.w3.org/2000/svg"
   width="98.421997mm"
   height="31.893999mm"
   viewBox="0 0 348.73936 113.01022"
   id="svg2"
   version="1.1">
  <defs
     id="defs4" />
  <metadata
     id="metadata7">
    <rdf:RDF>
      <cc:Work
         rdf:about="">
        <dc:format>image/svg+xml</dc:format>
        <dc:type
           rdf:resource="http://purl.org/dc/dcmitype/StillImage" />
        <dc:title></dc:title>
      </cc:Work>
    </rdf:RDF>
  </metadata>
  <g
     id="layer1"
     transform="translate(0,-939.35195)">
    <g
       transform="matrix(1.25,0,0,-1.25,0.36258571,2524.7462)"
       id="g4656">
      <text
         id="text4670"
         style="font-variant:normal;font-weight:normal;font-stretch:normal;font-size:36px;font-family:Karla;-inkscape-font-specification:Karla-Regular;writing-mode:lr-tb;fill:#ffffff;fill-opacity:1;fill-rule:nonzero;stroke:none"
         transform="scale(1,-1)"
         x="159.93123"
         y="-1021.2997">
        <tspan
           id="tspan4672"
           y="-1021.2997"
           x="159.93123 186.77643 213.63603 241.68004 270.11642">PEACH</tspan>
      </text>
      <path
         id="path4674"
         style="fill:#ffffff;fill-opacity:1;fill-rule:nonzero;stroke:none"
         d="m 102.10723,1021.3004 -15.999995,0 0,18 15.999995,0 0,-18 z" />
      <path
         id="path4676"
         style="fill:#ffffff;fill-opacity:1;fill-rule:nonzero;stroke:none"
         d="m 122.35723,1021.3004 -16,0 0,39.43 16,0 0,-39.43 z" />
      <path
         id="path4678"
         style="fill:#ffffff;fill-opacity:1;fill-rule:nonzero;stroke:none"
         d="m 142.60723,1021.3004 -16,0 0,24.93 16,0 0,-24.93 z" />
      <text
         id="text4994"
         style="font-variant:normal;font-weight:normal;font-stretch:normal;font-size:36px;font-family:Karla;-inkscape-font-specification:Karla-Regular;writing-mode:lr-tb;fill:#ffffff;fill-opacity:1;fill-rule:nonzero;stroke:none;"
         transform="scale(1,-1)"
         x="105.68861"
         y="-1207.8959">
        <tspan
           style="fill:#ffffff;"
           id="tspan4996"
           y="-1207.8959"
           x="105.68861 132.53381 159.39342 187.43742 215.87383">PEACH</tspan>
      </text>
      <path
         id="path4998"
         style="fill:#ffffff;fill-opacity:1;fill-rule:nonzero;stroke:none"
         d="m 47.865109,1207.8966 -16,0 0,18 16,0 0,-18 z" />
      <path
         id="path5000"
         style="fill:#ffffff;fill-opacity:1;fill-rule:nonzero;stroke:none"
         d="m 68.115109,1207.8966 -16,0 0,39.43 16,0 0,-39.43 z" />
      <path
         id="path5002"
         style="fill:#ffffff;fill-opacity:1;fill-rule:nonzero;stroke:none"
         d="m 88.365109,1207.8966 -16,0 0,24.93 16,0 0,-24.93 z" />
    </g>
  </g>
</svg>
