<?xml version="1.0" encoding="UTF-8" standalone="no"?>
<svg
   xmlns:dc="http://purl.org/dc/elements/1.1/"
   xmlns:cc="http://creativecommons.org/ns#"
   xmlns:rdf="http://www.w3.org/1999/02/22-rdf-syntax-ns#"
   xmlns:svg="http://www.w3.org/2000/svg"
   xmlns="http://www.w3.org/2000/svg"
   xmlns:sodipodi="http://sodipodi.sourceforge.net/DTD/sodipodi-0.dtd"
   xmlns:inkscape="http://www.inkscape.org/namespaces/inkscape"
   xml:space="preserve"
   enable-background="new 0 0 706 190"
   viewBox="0 0 259.379 91.211998"
   height="91.211998"
   width="259.379"
   y="0px"
   x="0px"
   id="Layer_1"
   version="1.1"
   inkscape:version="0.91 r13725"
   sodipodi:docname="peach_main.svg"><sodipodi:namedview
     pagecolor="#ffffff"
     bordercolor="#666666"
     borderopacity="1"
     objecttolerance="10"
     gridtolerance="10"
     guidetolerance="10"
     inkscape:pageopacity="0"
     inkscape:pageshadow="2"
     inkscape:window-width="1366"
     inkscape:window-height="719"
     id="namedview16"
     showgrid="false"
     inkscape:zoom="1.0563693"
     inkscape:cx="129.6895"
     inkscape:cy="45.605999"
     inkscape:window-x="0"
     inkscape:window-y="1"
     inkscape:window-maximized="1"
     inkscape:current-layer="Layer_1" /><metadata
     id="metadata815"><rdf:RDF><cc:Work
         rdf:about=""><dc:format>image/svg+xml</dc:format><dc:type
           rdf:resource="http://purl.org/dc/dcmitype/StillImage" /><dc:title /></cc:Work></rdf:RDF></metadata><defs
     id="defs813" /><g
     transform="translate(-57.7692,-43.7688)"
     id="g5"><g
       id="g7"><path
         id="path9"
         d="m 177.61,86.21 c 1.75,1.464 2.627,3.72 2.627,6.768 0,3.048 -0.895,5.28 -2.682,6.696 -1.789,1.417 -4.531,2.124 -8.226,2.124 l -4.464,0 0,7.38 -4.248,0 0,-25.164 8.64,0 c 3.816,0 6.599,0.733 8.353,2.196 z m -3.008,10.386 c 0.854,-0.9 1.279,-2.22 1.279,-3.96 0,-1.74 -0.541,-2.97 -1.621,-3.69 -1.08,-0.72 -2.771,-1.08 -5.075,-1.08 l -4.32,0 0,10.08 4.932,0 c 2.352,0 3.953,-0.45 4.805,-1.35 z" /><path
         id="path11"
         d="m 205.138,84.014 0,3.996 -13.428,0 0,6.66 12.06,0 0,3.78 -12.06,0 0,6.732 13.859,0 0,3.996 -18.107,0 0,-25.164 17.676,0 z" /><path
         id="path13"
         d="m 217.885,103.454 -2.52,5.724 -4.536,0 11.088,-25.164 4.536,0 11.088,25.164 -4.536,0 -2.52,-5.724 -12.6,0 z m 10.872,-3.924 -4.571,-10.368 -4.572,10.368 9.143,0 z" /><path
         id="path15"
         d="m 253.848,105.326 c 1.464,0 2.724,-0.246 3.78,-0.738 1.056,-0.492 2.16,-1.278 3.312,-2.358 l 2.735,2.808 c -2.664,2.952 -5.898,4.428 -9.702,4.428 -3.804,0 -6.96,-1.224 -9.468,-3.672 -2.508,-2.448 -3.762,-5.544 -3.762,-9.288 0,-3.744 1.278,-6.864 3.834,-9.36 2.556,-2.496 5.783,-3.744 9.684,-3.744 3.901,0 7.158,1.44 9.774,4.32 l -2.7,2.952 c -1.2,-1.152 -2.334,-1.956 -3.402,-2.412 -1.067,-0.456 -2.321,-0.684 -3.762,-0.684 -2.544,0 -4.68,0.822 -6.408,2.466 -1.728,1.644 -2.592,3.744 -2.592,6.3 0,2.556 0.858,4.692 2.574,6.408 1.716,1.716 3.752,2.574 6.103,2.574 z" /><path
         id="path17"
         d="m 270.804,109.178 0,-25.164 4.248,0 0,10.908 12.492,0 0,-10.908 4.248,0 0,25.164 -4.248,0 0,-10.296 -12.492,0 0,10.296 -4.248,0 z" /></g><rect
       id="rect19"
       height="18"
       width="16"
       y="91.177002"
       x="83.301003" /><rect
       id="rect21"
       height="39.43"
       width="16"
       y="69.747002"
       x="103.551" /><rect
       id="rect23"
       height="24.93"
       width="16"
       y="84.247002"
       x="123.801" /></g></svg>